<?xml version="1.0" standalone="no"?>
<!DOCTYPE svg PUBLIC "-//W3C//DTD SVG 1.1//EN" "http://www.w3.org/Graphics/SVG/1.1/DTD/svg11.dtd" >
<svg xmlns="http://www.w3.org/2000/svg" xmlns:xlink="http://www.w3.org/1999/xlink" version="1.1">
<metadata>
Created by FontForge 20170731 at Fri Oct  2 21:58:25 2020
 By Aleksey,,,
(c)2015 Now Typeface is a trademark of Alfredo Marco Pradil. All rights reserved.
</metadata>
<defs>
<font id="Now-Medium" horiz-adv-x="0" >
  <font-face 
    font-family="Now Medium"
    font-weight="500"
    font-stretch="normal"
    units-per-em="2048"
    panose-1="0 0 6 0 0 0 0 0 0 0"
    ascent="1638"
    descent="-410"
    x-height="1024"
    cap-height="1536"
    bbox="-1564 -620 2243 2335"
    underline-thickness="128"
    underline-position="-384"
    unicode-range="U+0020-FB02"
  />
<missing-glyph horiz-adv-x="1274" 
d="M192 0v1536h891v-1536h-891zM374 184h525v1168h-525v-1168z" />
    <glyph glyph-name="fi" unicode="fi" horiz-adv-x="1338" 
d="M466 1457v-433h258v-205h-258v-819h-243v819h-172v205h172v463q0 139 102.5 237.5t245.5 98.5q103 0 148 -31v-189h-120q-57 0 -95 -40t-38 -106zM1037 1206q-59 0 -102.5 42.5t-43.5 100.5q0 61 43 103.5t103 42.5t103 -42.5t43 -103.5q0 -58 -43.5 -100.5t-102.5 -42.5
zM916 0v1024h241v-1024h-241z" />
    <glyph glyph-name="fl" unicode="fl" horiz-adv-x="1315" 
d="M466 1457v-433h258v-205h-258v-819h-243v819h-172v205h172v463q0 139 102.5 237.5t245.5 98.5q103 0 148 -31v-189h-120q-57 0 -95 -40t-38 -106zM904 1823h243v-1823h-243v1823z" />
    <glyph glyph-name="f_t.liga" unicode="ft" horiz-adv-x="1397" 
d="M1331 819h-258v-473q0 -66 38 -106t97 -40h118v-187q-20 -14 -62 -23.5t-86 -9.5q-142 0 -245.5 98.5t-103.5 238.5v502h-363v-819h-243v819h-172v205h172v463q0 139 102.5 237.5t245.5 98.5q103 0 148 -31v-189h-120q-57 0 -95 -40t-38 -106v-433h363v420h244v-420h258
v-205z" />
    <glyph glyph-name=".notdef" horiz-adv-x="1274" 
d="M192 0v1536h891v-1536h-891zM374 184h525v1168h-525v-1168z" />
    <glyph glyph-name=".null" 
 />
    <glyph glyph-name="nonmarkingreturn" horiz-adv-x="682" 
 />
    <glyph glyph-name="space" unicode=" " horiz-adv-x="614" 
 />
    <glyph glyph-name="exclam" unicode="!" horiz-adv-x="673" 
d="M243 484l-28 1167h241l-28 -1167h-185zM335 -20q-59 0 -101 43t-42 102t42 101.5t101 42.5t102.5 -42.5t43.5 -101.5t-43.5 -102t-102.5 -43z" />
    <glyph glyph-name="quotedbl" unicode="&#x22;" horiz-adv-x="1000" 
d="M220 868l-28 688h228l-28 -688h-172zM609 868l-28 688h228l-28 -688h-172z" />
    <glyph glyph-name="numbersign" unicode="#" horiz-adv-x="1684" 
d="M381 0l49 346h-289l25 174h287l67 430h-292l28 174h284l51 351h172l-49 -351h364l48 351h174l-48 -351h289l-28 -174h-287l-59 -430h287l-23 -174h-287l-53 -346h-172l49 346h-366l-46 -346h-175zM630 520h361l64 430h-366z" />
    <glyph glyph-name="dollar" unicode="$" horiz-adv-x="1162" 
d="M1098 420q0 -173 -109 -287.5t-282 -142.5v-159h-223v159q-145 24 -258.5 109.5t-169.5 207.5l215 131q41 -100 127 -159t201 -59q109 0 178.5 54t69.5 146q0 52 -25 93t-67 69.5t-96.5 52.5t-114.5 47t-120.5 48.5t-115 61t-96.5 80t-67 110.5t-25 147q0 173 102.5 282
t261.5 138v159h223v-167q194 -42 312 -189l-177 -162q-106 134 -263 134q-90 0 -149 -45.5t-59 -131.5q0 -50 25 -89.5t67 -67t96.5 -51t114.5 -46.5t120.5 -49t115 -63.5t96.5 -85t67 -118t25 -157.5z" />
    <glyph glyph-name="percent" unicode="%" horiz-adv-x="1646" 
d="M422 860q-127 0 -215.5 102t-88.5 246t88.5 246t215.5 102t216 -102t89 -246t-89 -246t-216 -102zM177 0l1042 1536h250l-1041 -1536h-251zM422 1044q49 0 86 48t37 116t-37 116t-86 48t-84.5 -48t-35.5 -116t35.5 -116t84.5 -48zM1224 -20q-127 0 -216 102t-89 246
t89 246t216 102q128 0 216 -101.5t88 -246.5t-88 -246.5t-216 -101.5zM1224 164q49 0 84.5 48t35.5 116t-35.5 116t-84.5 48t-85 -48t-36 -116t36 -116t85 -48z" />
    <glyph glyph-name="ampersand" unicode="&#x26;" horiz-adv-x="1436" 
d="M1357 876v-218h-154v-197q0 -201 -138.5 -331t-357.5 -130q-141 0 -257.5 55t-184.5 154.5t-68 223.5q0 100 46 190t126 153q-77 65 -120.5 155t-43.5 193q0 179 119 298.5t293 113.5h346v-228h-303q-88 -2 -150 -55.5t-62 -144.5q0 -99 73.5 -165.5t179.5 -66.5h262v238
h240v-238h154zM701 212q119 0 190.5 70t71.5 179v197h-300q-99 0 -168.5 -64t-69.5 -156q0 -99 81 -162.5t195 -63.5z" />
    <glyph glyph-name="quotesingle" unicode="'" horiz-adv-x="611" 
d="M220 950l-28 606h228l-28 -606h-172z" />
    <glyph glyph-name="parenleft" unicode="(" horiz-adv-x="821" 
d="M737 -607q-102 4 -188 46.5t-160.5 135t-126.5 231.5t-81.5 346t-29.5 468t29.5 468t81.5 347t126.5 233t160.5 136t188 47v-174q-82 -6 -147.5 -65t-117.5 -179.5t-80 -326.5t-28 -486q0 -278 28 -483t80 -325.5t117.5 -179.5t147.5 -65v-174z" />
    <glyph glyph-name="parenright" unicode=")" horiz-adv-x="821" 
d="M84 -607v174q81 6 146.5 65t117.5 179.5t81 326t29 482.5q0 279 -29 485.5t-81 327t-117.5 179.5t-146.5 65v174q101 -4 187 -47t161 -136t127 -232.5t82 -347t30 -468.5t-30 -468t-82 -346t-127 -231.5t-161 -135t-187 -46.5z" />
    <glyph glyph-name="asterisk" unicode="*" horiz-adv-x="750" 
d="M297 1014l-108 64l113 156l-192 -23v125l192 -20l-113 156l108 64l79 -177l80 177l110 -64l-118 -156l195 20v-125l-195 23l118 -156l-110 -64l-80 176z" />
    <glyph glyph-name="plus" unicode="+" horiz-adv-x="1651" 
d="M727 0v535h-535v200h535v535h200v-535h535v-200h-535v-535h-200z" />
    <glyph glyph-name="comma" unicode="," horiz-adv-x="524" 
d="M179 -338h-169l256 602h249z" />
    <glyph glyph-name="hyphen" unicode="-" horiz-adv-x="965" 
d="M123 435v195h717v-195h-717z" />
    <glyph glyph-name="period" unicode="." horiz-adv-x="578" 
d="M289 -20q-67 0 -116.5 49t-49.5 117t49.5 117t116.5 49q68 0 117.5 -49.5t49.5 -116.5t-49.5 -116.5t-117.5 -49.5z" />
    <glyph glyph-name="slash" unicode="/" horiz-adv-x="1415" 
d="M-41 -614l1270 2437h228l-1268 -2437h-230z" />
    <glyph glyph-name="zero" unicode="0" horiz-adv-x="1413" 
d="M707 -20q-181 0 -310 102.5t-191.5 278t-62.5 407.5t62.5 407.5t191.5 278t310 102.5q179 0 307.5 -102t192 -278.5t63.5 -407.5t-63.5 -407.5t-192 -278.5t-307.5 -102zM707 207q109 0 181 72t104 195t32 294t-32 294t-104 195t-181 72q-161 0 -239.5 -150t-78.5 -411
t78.5 -411t239.5 -150z" />
    <glyph glyph-name="one" unicode="1" horiz-adv-x="819" 
d="M328 0v1308h-246v228h491v-1536h-245z" />
    <glyph glyph-name="two" unicode="2" horiz-adv-x="1213" 
d="M486 228h630v-228h-1119l623 737q131 153 170 223t39 141q0 114 -65 171t-162 57q-101 2 -167 -64.5t-59 -176.5h-248q-7 137 58 246t178 167t250 58q197 -2 328.5 -121.5t135.5 -308.5q1 -68 -11 -122t-48.5 -118.5t-84.5 -127.5t-138 -170z" />
    <glyph glyph-name="three" unicode="3" horiz-adv-x="1256" 
d="M609 911q139 5 253 -48t181.5 -157.5t67.5 -242.5q0 -201 -144 -342t-355 -141q-202 0 -345.5 130t-143.5 315l248 3q0 -89 72 -151t171 -62q109 0 181.5 74.5t72.5 184.5q0 106 -71.5 172t-179.5 66h-407h-8l458 596h-537v228h978z" />
    <glyph glyph-name="four" unicode="4" horiz-adv-x="1292" 
d="M1170 553v-230h-143v-323h-246v323h-735l671 1213h310v-983h143zM381 553h400v742z" />
    <glyph glyph-name="five" unicode="5" horiz-adv-x="1295" 
d="M686 1029q212 0 348 -146t136 -368q0 -234 -155.5 -384.5t-405.5 -150.5q-147 0 -289 54.5t-223 142.5l23 253h36q158 -218 440 -218q150 0 239 83t89 209q0 129 -85.5 213t-211.5 84q-74 0 -144.5 -31.5t-121.5 -85.5l-200 122l77 725h837v-228h-635l-43 -371
q122 97 289 97z" />
    <glyph glyph-name="six" unicode="6" horiz-adv-x="1356" 
d="M1234 525q2 -147 -71 -271t-198.5 -196t-273.5 -76q-230 -6 -396 145.5t-170 371.5q-6 174 126 356l514 681h292l-407 -504q36 7 87 7q92 -7 180.5 -48t158.5 -107t113 -160t45 -199zM691 202q137 6 222.5 97.5t79.5 222.5q-4 138 -95.5 226t-229.5 84
q-137 -6 -221.5 -100t-80.5 -233q6 -134 96 -217.5t229 -79.5z" />
    <glyph glyph-name="seven" unicode="7" horiz-adv-x="1175" 
d="M87 1536h1042v-174l-745 -1362h-276l734 1308h-755v228z" />
    <glyph glyph-name="eight" unicode="8" horiz-adv-x="1221" 
d="M883 855q115 -60 180.5 -165.5t65.5 -236.5q0 -200 -149 -336.5t-371 -136.5q-220 0 -367 136.5t-147 336.5q0 131 65 236.5t178 165.5q-73 53 -113.5 132t-40.5 173q0 169 122 282.5t306 113.5q182 0 303.5 -113.5t121.5 -282.5q0 -94 -40.5 -173t-113.5 -132zM612 1347
q-90 0 -151.5 -61.5t-61.5 -151.5t61.5 -151t151.5 -61q89 0 149.5 61t60.5 151t-60.5 151.5t-149.5 61.5zM609 195q115 0 193.5 81.5t78.5 197.5q0 115 -78 191.5t-194 76.5q-114 0 -191.5 -76.5t-77.5 -191.5q0 -116 78 -197.5t191 -81.5z" />
    <glyph glyph-name="nine" unicode="9" horiz-adv-x="1356" 
d="M1234 1037q4 -177 -126 -356l-517 -681h-289l407 504q-36 -7 -87 -7q-92 7 -180.5 48t-158.5 107t-113 160t-45 199q-4 147 69 271t198.5 196t275.5 76t279.5 -63.5t207 -188.5t79.5 -265zM691 704q137 6 221.5 100t80.5 233q-6 132 -97 216.5t-228 80.5
q-139 -6 -224.5 -97t-79.5 -223q6 -139 97 -226.5t230 -83.5z" />
    <glyph glyph-name="colon" unicode=":" horiz-adv-x="686" 
d="M343 755q-59 0 -102.5 42.5t-43.5 101.5t43.5 102t102.5 43q58 0 102 -43t44 -102t-44 -101.5t-102 -42.5zM343 -20q-59 0 -102.5 43t-43.5 102q0 58 43.5 101t102.5 43q58 0 102 -43t44 -101q0 -59 -44 -102t-102 -43z" />
    <glyph glyph-name="semicolon" unicode=";" horiz-adv-x="721" 
d="M366 755q-59 0 -102.5 42.5t-43.5 101.5t43.5 102t102.5 43t102.5 -43t43.5 -102t-43.5 -101.5t-102.5 -42.5zM225 -338h-169l256 602h249z" />
    <glyph glyph-name="less" unicode="&#x3c;" horiz-adv-x="1512" 
d="M1321 1408v-200l-942 -476l942 -476v-202l-1129 571v217z" />
    <glyph glyph-name="equal" unicode="=" horiz-adv-x="1487" 
d="M131 663v156h1228v-156h-1228zM131 266v156h1228v-156h-1228z" />
    <glyph glyph-name="greater" unicode="&#x3e;" horiz-adv-x="1512" 
d="M192 1408l1129 -566v-217l-1129 -571v202l942 476l-942 476v200z" />
    <glyph glyph-name="question" unicode="?" horiz-adv-x="1280" 
d="M566 445v239q0 82 20.5 140t53 89t72.5 53t79.5 41t72 43.5t53 69.5t20.5 111q0 102 -75.5 169t-188.5 67q-119 0 -192.5 -76.5t-65.5 -192.5h-215q-6 134 53 244t170 173.5t250 63.5q203 0 339.5 -129t136.5 -319q0 -84 -20 -147.5t-52.5 -100.5t-71.5 -65t-78 -48.5
t-71.5 -41t-52.5 -52.5t-20 -75v-256h-217zM681 -20q-60 0 -103 42t-43 103q0 59 43.5 101.5t102.5 42.5q61 0 103.5 -42t42.5 -102q0 -61 -42 -103t-104 -42z" />
    <glyph glyph-name="at" unicode="@" horiz-adv-x="1277" 
d="M1085 305h-145v56q-36 -36 -88.5 -57.5t-101.5 -21.5q-106 0 -181 74.5t-75 183.5q0 107 75 181.5t179 74.5q52 0 104.5 -22.5t87.5 -59.5v36q0 94 -78 161t-191 67q-165 0 -281 -120.5t-116 -291.5q0 -178 127.5 -300.5t312.5 -122.5h371v-143h-371q-161 0 -295 75
t-211 205t-77 286q0 153 71.5 281t195.5 202.5t273 74.5q175 0 294.5 -108t119.5 -266v-445zM806 404q44 0 80.5 21.5t53.5 58.5v112q-17 35 -53.5 56t-80.5 21q-62 0 -104 -38t-42 -95q0 -58 42 -97t104 -39z" />
    <glyph glyph-name="A" unicode="A" horiz-adv-x="1354" 
d="M1101 0l-110 325h-627l-111 -325h-271l556 1536h279l555 -1536h-271zM438 545h481l-241 717z" />
    <glyph glyph-name="B" unicode="B" horiz-adv-x="1364" 
d="M1011 778q118 -44 187 -137.5t69 -228.5q0 -123 -59 -218t-158 -144.5t-221 -49.5h-660v1536h604q189 0 316 -115.5t127 -301.5q0 -120 -54 -207t-151 -134zM965 1093q0 91 -64 150.5t-156 59.5h-328v-425h328q90 0 155 62.5t65 152.5zM794 233q93 0 157.5 60.5
t64.5 149.5q0 90 -65 152.5t-157 62.5h-377v-425h377z" />
    <glyph glyph-name="C" unicode="C" horiz-adv-x="1664" 
d="M899 -20q-160 0 -306 62.5t-252 168t-168.5 251.5t-62.5 306t62.5 306t168.5 251.5t252 168t306 62.5q221 0 405 -112t286 -300l-215 -115q-68 128 -195 203.5t-281 75.5q-149 0 -273 -71t-196 -195t-72 -274t72 -274t196 -195t273 -71q154 0 281 75.5t195 203.5
l215 -115q-102 -188 -286 -300t-405 -112z" />
    <glyph glyph-name="D" unicode="D" horiz-adv-x="1507" 
d="M169 0v1536h461q157 0 299 -60.5t245 -163.5t163.5 -245t60.5 -299t-60.5 -299t-163.5 -245t-245 -163.5t-299 -60.5h-461zM417 233h213q220 0 369.5 153t149.5 382t-149.5 382t-369.5 153h-213v-1070z" />
    <glyph glyph-name="E" unicode="E" horiz-adv-x="1192" 
d="M1062 1308h-629v-425h545v-230h-545v-425h629v-228h-880v1536h880v-228z" />
    <glyph glyph-name="F" unicode="F" horiz-adv-x="1095" 
d="M1062 1308h-629v-425h545v-230h-545v-653h-251v1536h880v-228z" />
    <glyph glyph-name="G" unicode="G" horiz-adv-x="1804" 
d="M901 829h791v-61q0 -160 -62.5 -306t-168 -251.5t-251.5 -168t-306 -62.5q-161 0 -307.5 62.5t-252 168t-167.5 251.5t-62 306t62 306t167.5 251.5t252 168t307.5 62.5q220 0 405 -112.5t286 -299.5l-215 -115q-70 128 -196.5 203.5t-279.5 75.5q-229 0 -386 -156
t-157 -384t157 -384t386 -156q187 0 330 109t189 283h-522v209z" />
    <glyph glyph-name="H" unicode="H" horiz-adv-x="1574" 
d="M1155 1536h250v-1536h-250v653h-735v-653h-251v1536h251v-650h735v650z" />
    <glyph glyph-name="I" unicode="I" horiz-adv-x="611" 
d="M182 0v1536h251v-1536h-251z" />
    <glyph glyph-name="J" unicode="J" horiz-adv-x="1082" 
d="M945 1536v-1155q0 -187 -116.5 -294t-321.5 -107q-185 0 -298.5 89.5t-134.5 247.5l251 67q7 -78 58 -126t124 -48q82 0 134.5 56.5t52.5 145.5v891h-520v233h771z" />
    <glyph glyph-name="K" unicode="K" horiz-adv-x="1410" 
d="M1106 0l-604 724h-82v-724h-251v1536h251v-586h87l558 586h330l-681 -696l732 -840h-340z" />
    <glyph glyph-name="L" unicode="L" horiz-adv-x="972" 
d="M420 233h540v-233h-791v1536h251v-1303z" />
    <glyph glyph-name="M" unicode="M" horiz-adv-x="1950" 
d="M1516 1536h266v-1536h-249v1060l-476 -1060h-166l-471 1057v-1057h-251v1536h269l537 -1203z" />
    <glyph glyph-name="N" unicode="N" horiz-adv-x="1689" 
d="M1272 1536h249v-1536h-251l-850 1142v-1142h-251v1536h251l852 -1139v1139z" />
    <glyph glyph-name="O" unicode="O" horiz-adv-x="1797" 
d="M899 -20q-160 0 -306 62.5t-252 168t-168.5 251.5t-62.5 306t62.5 306t168.5 251.5t252 168t306 62.5t306 -62.5t251.5 -168t168 -251.5t62.5 -306t-62.5 -306t-168 -251.5t-251.5 -168t-306 -62.5zM899 228q150 0 274 71t195 195t71 274t-71 274t-195 195t-274 71
q-149 0 -273 -71t-196 -195t-72 -274t72 -274t196 -195t273 -71z" />
    <glyph glyph-name="P" unicode="P" horiz-adv-x="1239" 
d="M771 1536q185 0 313.5 -130t128.5 -315q0 -186 -128 -312t-314 -126h-351v-653h-251v1536h602zM735 870q102 0 167.5 59t65.5 159q0 98 -66 159t-167 61h-315v-438h315z" />
    <glyph glyph-name="Q" unicode="Q" horiz-adv-x="1804" 
d="M1748 200v-200h-670q-86 -20 -179 -20q-160 0 -306 62.5t-252 168t-168.5 251.5t-62.5 306t62.5 306t168.5 251.5t252 168t306 62.5t306 -62.5t251.5 -168t168 -251.5t62.5 -306q0 -198 -91.5 -369t-248.5 -279l212 80h189zM358 768q0 -150 72 -274t196 -195t273 -71
q150 0 274 71t195 195t71 274t-71 274t-195 195t-274 71q-149 0 -273 -71t-196 -195t-72 -274z" />
    <glyph glyph-name="R" unicode="R" horiz-adv-x="1326" 
d="M881 668l440 -668h-282l-407 645h-212v-645h-251v1536h602q122 0 223.5 -60t160 -163.5t58.5 -227.5q0 -154 -93.5 -270t-238.5 -147zM420 863h320q99 0 163.5 61.5t64.5 158.5t-64.5 158.5t-163.5 61.5h-320v-440z" />
    <glyph glyph-name="S" unicode="S" horiz-adv-x="1162" 
d="M596 -20q-181 0 -326 90t-214 237l215 131q41 -100 127 -159t201 -59q109 0 178.5 54t69.5 146q0 52 -25 93t-67 69.5t-96.5 52.5t-114.5 47t-120.5 48.5t-115 61t-96.5 80t-67 110.5t-25 147q0 100 37.5 182.5t101.5 135t146.5 81t173.5 28.5q133 0 249 -55.5
t191 -148.5l-177 -162q-106 134 -263 134q-90 0 -149 -45.5t-59 -131.5q0 -50 25 -89.5t67 -67t96.5 -51t114.5 -46.5t120.5 -49t115 -63.5t96.5 -85t67 -118t25 -157.5q0 -134 -68.5 -235.5t-181.5 -153t-252 -51.5z" />
    <glyph glyph-name="T" unicode="T" horiz-adv-x="1072" 
d="M1068 1536v-233h-408v-1303h-248v1303h-407v233h1063z" />
    <glyph glyph-name="U" unicode="U" horiz-adv-x="1538" 
d="M768 -20q-172 0 -311 67.5t-217.5 186t-78.5 265.5v1037h251v-993q0 -142 101.5 -236.5t254.5 -94.5q154 0 256 94.5t102 236.5v993h251v-1037q0 -146 -79 -265t-218.5 -186.5t-311.5 -67.5z" />
    <glyph glyph-name="V" unicode="V" horiz-adv-x="1354" 
d="M1093 1536h279l-555 -1536h-279l-556 1536h279l417 -1219z" />
    <glyph glyph-name="W" unicode="W" horiz-adv-x="2081" 
d="M1848 1536h261l-448 -1536h-281l-341 1229l-335 -1229h-279l-453 1536h266l333 -1157l328 1157h225h59l330 -1162z" />
    <glyph glyph-name="X" unicode="X" horiz-adv-x="1295" 
d="M1311 0h-295l-368 579l-369 -579h-294l527 783l-504 753h292l348 -545l350 545h290l-505 -750z" />
    <glyph glyph-name="Y" unicode="Y" horiz-adv-x="1292" 
d="M1308 1536l-535 -809v-727h-251v722l-537 814h294l369 -579l371 579h289z" />
    <glyph glyph-name="Z" unicode="Z" horiz-adv-x="1331" 
d="M492 233h755v-233h-1170l742 1303h-678v233h1090z" />
    <glyph glyph-name="bracketleft" unicode="[" horiz-adv-x="742" 
d="M169 -512v2360h476v-151h-266v-2055h266v-154h-476z" />
    <glyph glyph-name="backslash" unicode="\" horiz-adv-x="1415" 
d="M1229 -614l-1270 2437h230l1268 -2437h-228z" />
    <glyph glyph-name="bracketright" unicode="]" horiz-adv-x="742" 
d="M100 -512v154h264v2055h-264v151h473v-2360h-473z" />
    <glyph glyph-name="asciicircum" unicode="^" horiz-adv-x="1495" 
d="M1423 404h-202l-473 943l-477 -943h-202l568 1132h218z" />
    <glyph glyph-name="underscore" unicode="_" horiz-adv-x="1405" 
d="M90 -192v192h1228v-192h-1228z" />
    <glyph glyph-name="grave" unicode="`" horiz-adv-x="163" 
d="M520 1155h-159l-315 381h248z" />
    <glyph glyph-name="a" unicode="a" horiz-adv-x="1377" 
d="M1285 200h56v-200q-35 -20 -81 -20q-92 0 -165 46.5t-112 124.5q-66 -80 -161.5 -125.5t-204.5 -45.5q-107 0 -203 41.5t-165.5 112.5t-110.5 170t-41 208t41 208t110.5 170t165.5 112.5t203 41.5q189 0 330 -128v108h243v-709q0 -115 95 -115zM648 205q127 0 217 89.5
t90 217.5t-90 217.5t-217 89.5q-129 0 -218.5 -89t-89.5 -218t89.5 -218t218.5 -89z" />
    <glyph glyph-name="b" unicode="b" horiz-adv-x="1359" 
d="M742 1044q107 0 203 -41.5t165.5 -112.5t110.5 -170t41 -208t-41 -208t-110.5 -170t-165.5 -112.5t-203 -41.5q-189 0 -330 128v-108h-243v1823h243v-907q141 128 330 128zM712 205q129 0 218 89t89 218t-89 218t-218 89t-218.5 -89t-89.5 -218t89.5 -218t218.5 -89z" />
    <glyph glyph-name="c" unicode="c" horiz-adv-x="1239" 
d="M648 -20q-156 0 -282.5 70t-197.5 192t-71 270t71 270t197.5 192t282.5 70q201 0 345 -111t187 -290h-253q-37 80 -112 128t-167 48q-129 0 -218.5 -88.5t-89.5 -218.5t89.5 -218.5t218.5 -88.5q92 0 167 48t112 128h253q-43 -179 -187 -290t-345 -111z" />
    <glyph glyph-name="d" unicode="d" horiz-adv-x="1359" 
d="M947 1823h243v-1823h-243v108q-141 -128 -330 -128q-107 0 -203 41.5t-165.5 112.5t-110.5 170t-41 208t41 208t110.5 170t165.5 112.5t203 41.5q189 0 330 -128v907zM648 205q127 0 217 89.5t90 217.5t-90 217.5t-217 89.5q-129 0 -218.5 -89t-89.5 -218t89.5 -218
t218.5 -89z" />
    <glyph glyph-name="e" unicode="e" horiz-adv-x="1274" 
d="M1185 517l-2 -43h-840q10 -130 93.5 -211t211.5 -81q97 0 170 47t106 129h243q-45 -170 -184.5 -274t-334.5 -104q-238 0 -394.5 151t-156.5 381q0 151 71.5 273t197 190.5t279.5 68.5q232 0 384 -148.5t156 -378.5zM648 840q-101 0 -175 -51.5t-109 -140.5h555
q-34 90 -103.5 141t-167.5 51z" />
    <glyph glyph-name="f" unicode="f" horiz-adv-x="734" 
d="M724 1024v-205h-258v-819h-243v819h-172v205h172v463q0 139 102.5 237.5t245.5 98.5q103 0 148 -31v-189h-120q-57 0 -95 -40t-38 -106v-433h258z" />
    <glyph glyph-name="g" unicode="g" horiz-adv-x="1374" 
d="M960 1024h246v-1078q0 -250 -157 -408t-406 -158q-185 0 -325 93.5t-198 252.5l223 92q31 -97 112.5 -156t187.5 -59q138 0 229 95t91 241v176q-145 -135 -346 -135q-107 0 -203 41.5t-165.5 112.5t-110.5 170t-41 208t41 208t110.5 170t165.5 112.5t203 41.5
q197 0 343 -133v113zM655 205q129 0 219.5 89t90.5 218t-90.5 218t-219.5 89t-218 -89t-89 -218t89 -218t218 -89z" />
    <glyph glyph-name="h" unicode="h" horiz-adv-x="1195" 
d="M663 1044q160 0 270.5 -113.5t110.5 -280.5v-650h-243v627q0 81 -55.5 136.5t-136.5 55.5q-82 0 -139.5 -59.5t-57.5 -142.5v-617h-243v1823h243v-873q110 94 251 94z" />
    <glyph glyph-name="i" unicode="i" horiz-adv-x="604" 
d="M302 1206q-59 0 -102.5 42.5t-43.5 100.5q0 61 43 103.5t103 42.5t103 -42.5t43 -103.5q0 -58 -43.5 -100.5t-102.5 -42.5zM182 0v1024h240v-1024h-240z" />
    <glyph glyph-name="j" unicode="j" horiz-adv-x="604" 
d="M302 1206q-59 0 -102.5 42.5t-43.5 100.5q0 61 43 103.5t103 42.5t103 -42.5t43 -103.5q0 -58 -43.5 -100.5t-102.5 -42.5zM77 -614q-100 0 -151 33v187h120q57 0 96.5 40t39.5 106v1272h240v-1300q0 -141 -102 -239.5t-243 -98.5z" />
    <glyph glyph-name="k" unicode="k" horiz-adv-x="1141" 
d="M1180 0h-320l-435 525v-525h-241v1823h241v-1209l412 410h302l-461 -461z" />
    <glyph glyph-name="l" unicode="l" horiz-adv-x="581" 
d="M169 0v1823h243v-1823h-243z" />
    <glyph glyph-name="m" unicode="m" horiz-adv-x="1781" 
d="M1262 1044q162 0 265.5 -112t103.5 -282v-650h-243v625q0 81 -53.5 137.5t-131.5 56.5q-80 0 -131 -58t-51 -136v-625h-243v625q0 81 -53 137.5t-131 56.5q-80 0 -131 -58t-51 -136v-625h-243v1024h243v-105q104 125 254 125q85 0 160 -43.5t126 -117.5
q51 76 131.5 118.5t178.5 42.5z" />
    <glyph glyph-name="n" unicode="n" horiz-adv-x="1200" 
d="M676 1044q152 0 263 -114.5t111 -279.5v-650h-241v625q0 83 -56 138.5t-141 55.5t-142.5 -56t-57.5 -138v-625h-243v1024h243v-97q109 117 264 117z" />
    <glyph glyph-name="o" unicode="o" horiz-adv-x="1295" 
d="M648 -20q-156 0 -282.5 70t-197.5 192t-71 270t71 270t197.5 192t282.5 70t282 -70t197 -192t71 -270t-71 -270t-197 -192t-282 -70zM648 205q129 0 218 89t89 218t-89 218t-218 89q-130 0 -219 -89t-89 -218t89 -218t219 -89z" />
    <glyph glyph-name="p" unicode="p" horiz-adv-x="1359" 
d="M742 1044q107 0 203 -41.5t165.5 -112.5t110.5 -170t41 -208t-41 -208t-110.5 -170t-165.5 -112.5t-203 -41.5q-189 0 -330 128v-722h-243v1638h243v-108q141 128 330 128zM712 205q129 0 218 89t89 218t-89 218t-218 89t-218.5 -89t-89.5 -218t89.5 -218t218.5 -89z" />
    <glyph glyph-name="q" unicode="q" horiz-adv-x="1359" 
d="M1326 -394h95v-200q-51 -20 -126 -20q-142 0 -245 99t-103 239v384q-141 -128 -330 -128q-107 0 -203 41.5t-165.5 112.5t-110.5 170t-41 208t41 208t110.5 170t165.5 112.5t203 41.5q189 0 330 -128v108h243v-1272q0 -66 38.5 -106t97.5 -40zM648 205q127 0 217 89.5
t90 217.5t-90 217.5t-217 89.5q-129 0 -218.5 -89t-89.5 -218t89.5 -218t218.5 -89z" />
    <glyph glyph-name="r" unicode="r" horiz-adv-x="811" 
d="M727 1044q46 0 82 -7v-228q-52 10 -87 10q-134 0 -222 -83t-88 -216v-520h-243v1024h243v-141q55 76 136 118.5t179 42.5z" />
    <glyph glyph-name="s" unicode="s" horiz-adv-x="870" 
d="M458 -20q-131 0 -243 65.5t-148 169.5l197 90q22 -56 74.5 -86t112.5 -30q56 0 92 26.5t36 73.5q0 42 -34.5 68.5t-122.5 62.5q-67 24 -114 48t-94 61t-71.5 89t-24.5 117q0 134 95.5 221.5t239.5 87.5q101 0 191.5 -44.5t131.5 -111.5l-154 -125q-21 35 -62.5 56
t-91.5 21q-52 0 -81 -24t-29 -68t31 -67.5t118 -58.5q51 -21 85.5 -37.5t79.5 -46t71.5 -61t46 -79.5t19.5 -104q0 -138 -98.5 -226t-252.5 -88z" />
    <glyph glyph-name="t" unicode="t" horiz-adv-x="778" 
d="M712 819h-259v-473q0 -66 38.5 -106t97.5 -40h118v-187q-20 -14 -62.5 -23.5t-86.5 -9.5q-142 0 -245 98.5t-103 238.5v502h-169v205h169v420h243v-420h259v-205z" />
    <glyph glyph-name="u" unicode="u" horiz-adv-x="1141" 
d="M571 -20q-201 0 -315.5 107t-114.5 292v645h240v-614q0 -93 53 -149t137 -56q83 0 136 56t53 149v614h241v-645q0 -185 -114.5 -292t-315.5 -107z" />
    <glyph glyph-name="v" unicode="v" horiz-adv-x="1062" 
d="M799 1024h258l-412 -1024h-230l-410 1024h259l266 -760z" />
    <glyph glyph-name="w" unicode="w" horiz-adv-x="1697" 
d="M1421 1024h269l-349 -1024h-261l-230 694l-233 -694h-259l-353 1024h274l220 -755l249 755h204l249 -760z" />
    <glyph glyph-name="x" unicode="x" horiz-adv-x="1159" 
d="M1155 1024l-431 -512l431 -512h-292l-282 338l-284 -338h-292l430 512l-430 512h289l287 -340l284 340h290z" />
    <glyph glyph-name="y" unicode="y" horiz-adv-x="1103" 
d="M837 1024h261l-658 -1638h-256l244 596l-423 1042h259l292 -758z" />
    <glyph glyph-name="z" unicode="z" horiz-adv-x="1026" 
d="M968 1024l-510 -809h499v-215h-888l507 809h-461v215h853z" />
    <glyph glyph-name="braceleft" unicode="{" horiz-adv-x="693" 
d="M497 -586q-100 0 -166.5 86t-66.5 213v512q0 156 -28.5 217t-125.5 106v148q97 47 125.5 109t28.5 214v512q0 127 66.5 213t166.5 86h120v-156q-104 0 -136.5 -25t-32.5 -121v-540q0 -130 -26.5 -217.5t-98.5 -148.5q72 -61 98.5 -148.5t26.5 -217.5v-550
q0 -78 33.5 -107t135.5 -29v-156h-120z" />
    <glyph glyph-name="bar" unicode="|" horiz-adv-x="634" 
d="M241 -307v1843h153v-1843h-153z" />
    <glyph glyph-name="braceright" unicode="}" horiz-adv-x="693" 
d="M77 -586v156q100 0 133 29t33 107v550q0 129 28 216.5t100 149.5q-72 62 -100 149.5t-28 216.5v540q0 50 -7 79t-28.5 44t-49.5 19t-81 4v156h120q100 0 166.5 -86t66.5 -213v-512q0 -152 28.5 -214t125.5 -109v-148q-97 -45 -125.5 -106t-28.5 -217v-512
q0 -127 -66.5 -213t-166.5 -86h-120z" />
    <glyph glyph-name="asciitilde" unicode="~" horiz-adv-x="1205" 
d="M817 333q-50 0 -94 13.5t-79.5 39t-56.5 45.5t-47 47q-2 3 -3.5 4t-3.5 3t-3 4q-65 72 -123 72q-70 0 -110 -61t-38 -147h-169q-10 166 78.5 271.5t241.5 105.5q84 0 142.5 -36t118.5 -113q30 -40 59 -61t71 -21q65 0 108.5 57t37.5 148h167q13 -157 -73 -264t-224 -107z
" />
    <glyph glyph-name="exclamdown" unicode="&#xa1;" horiz-adv-x="673" 
d="M335 735q-59 0 -101 42t-42 101q0 60 42 103t101 43t102.5 -43.5t43.5 -102.5t-43 -101t-103 -42zM215 -614l28 1154h185l28 -1154h-241z" />
    <glyph glyph-name="cent" unicode="&#xa2;" horiz-adv-x="1070" 
d="M671 1037q-133 0 -226.5 -93t-93.5 -227t93.5 -227t226.5 -93q157 0 248 84v-238q-105 -55 -225 -59v-187h-144v200q-192 39 -316 183.5t-124 336.5t124 336t316 183v200h144v-187q120 -4 225 -59v-235q-94 82 -248 82z" />
    <glyph glyph-name="sterling" unicode="&#xa3;" horiz-adv-x="1303" 
d="M428 172h778v-172h-963v668h-164v161h164v236q0 215 135 353t346 138q157 0 290 -101.5t169 -253.5l-177 -77q-11 104 -94.5 176t-187.5 72q-134 0 -215 -84.5t-81 -222.5v-236h381v-161h-381v-496z" />
    <glyph glyph-name="currency" unicode="&#xa4;" horiz-adv-x="1313" 
d="M284 241l-128 135l108 105q-82 118 -81.5 262.5t81.5 260.5l-105 104l128 136l107 -110q117 82 262.5 83t262.5 -80l105 105l133 -131l-107 -105q81 -117 81 -262.5t-81 -262.5l105 -105l-128 -135l-108 110q-117 -83 -262.5 -83t-264.5 83zM448 538q87 -85 207.5 -85.5
t207.5 85.5q85 85 84 206t-87 206q-85 83 -204.5 82.5t-204.5 -85.5t-86 -205.5t83 -203.5z" />
    <glyph glyph-name="yen" unicode="&#xa5;" horiz-adv-x="1438" 
d="M1347 1536l-518 -783h382v-151h-387v-180h387v-146h-387v-276h-212v276h-384v146h384v180h-384v151h379l-517 783h225l402 -627l404 627h226z" />
    <glyph glyph-name="brokenbar" unicode="&#xa6;" horiz-adv-x="634" 
d="M241 799v737h153v-737h-153zM241 -307v737h153v-737h-153z" />
    <glyph glyph-name="section" unicode="&#xa7;" horiz-adv-x="1320" 
d="M1106 522q79 -74 79 -184q0 -96 -71.5 -173t-188.5 -118.5t-254 -41.5q-177 0 -322 67.5t-208 173.5l153 92q40 -74 141 -120t243 -46q138 0 233 44.5t95 123.5q0 50 -44 85.5t-114 58t-155 42.5t-170 46t-155 61t-114 95.5t-44 141.5q0 108 82 187q-82 71 -82 179
q0 76 38.5 138t103 101t144.5 60t167 21q128 0 244 -41.5t186 -111.5l-123 -100q-51 45 -128.5 71t-168.5 26q-116 0 -200 -42t-84 -114q0 -50 44 -85.5t114 -57.5t155 -42t170 -46.5t155 -62t114 -97t44 -144.5q0 -103 -79 -187zM389 878q0 -46 34.5 -79.5t98 -57
t130.5 -40.5t155 -41t148 -48q51 43 51 100q0 44 -34.5 77t-98 55.5t-130.5 39t-155 40t-148 46.5q-51 -40 -51 -92z" />
    <glyph glyph-name="dieresis" unicode="&#xa8;" horiz-adv-x="192" 
d="M266 1208q-54 0 -93.5 39.5t-39.5 93.5q0 55 39.5 94.5t93.5 39.5q56 0 96 -39.5t40 -94.5q0 -54 -40.5 -93.5t-95.5 -39.5zM668 1208q-54 0 -93.5 39.5t-39.5 93.5q0 55 39.5 94.5t93.5 39.5q55 0 94 -39t39 -95q0 -54 -39 -93.5t-94 -39.5z" />
    <glyph glyph-name="copyright" unicode="&#xa9;" horiz-adv-x="1797" 
d="M899 -20q-160 0 -306 62.5t-252 168t-168.5 251.5t-62.5 306t62.5 306t168.5 251.5t252 168t306 62.5t306 -62.5t251.5 -168t168 -251.5t62.5 -306t-62.5 -306t-168 -251.5t-251.5 -168t-306 -62.5zM899 113q180 0 330.5 87t237.5 237.5t87 330.5t-87 330.5t-237.5 237.5
t-330.5 87t-331 -87t-238 -237.5t-87 -330.5t87 -330.5t238 -237.5t331 -87zM909 361q-178 0 -296.5 116t-118.5 288t118.5 288.5t296.5 116.5q150 0 258 -84.5t139 -220.5h-190q-27 60 -83 96.5t-124 36.5q-98 0 -164.5 -66.5t-66.5 -166.5t66.5 -166.5t164.5 -66.5
q68 0 124 37t83 97h190q-31 -136 -139 -220.5t-258 -84.5z" />
    <glyph glyph-name="ordfeminine" unicode="&#xaa;" horiz-adv-x="857" 
d="M617 1536h123v-614h-123v112q-39 -59 -101 -92t-137 -33q-127 0 -217 93t-90 227q0 133 90 226.5t217 93.5q75 0 137 -34t101 -94v115zM402 1014q90 0 152.5 63t62.5 152q0 87 -63 149.5t-152 62.5q-86 0 -148 -63t-62 -149q0 -88 62 -151.5t148 -63.5z" />
    <glyph glyph-name="guillemotleft" unicode="&#xab;" horiz-adv-x="1405" 
d="M545 195l-312 376l312 376h197l-312 -376l312 -376h-197zM975 195l-312 376l312 376h200l-312 -376l312 -376h-200z" />
    <glyph glyph-name="logicalnot" unicode="&#xac;" horiz-adv-x="1656" 
d="M1303 218v522h-1111v166h1275v-688h-164z" />
    <glyph glyph-name="uni00AD" unicode="&#xad;" horiz-adv-x="1021" 
d="M123 435v195h717v-195h-717z" />
    <glyph glyph-name="registered" unicode="&#xae;" horiz-adv-x="1797" 
d="M899 1556q160 0 306 -62.5t251.5 -168t168 -251.5t62.5 -306t-62.5 -306t-168 -251.5t-251.5 -168t-306 -62.5t-306 62.5t-252 168t-168.5 251.5t-62.5 306t62.5 306t168.5 251.5t252 168t306 62.5zM899 113q180 0 330.5 87t237.5 237.5t87 330.5t-87 330.5t-237.5 237.5
t-330.5 87t-331 -87t-238 -237.5t-87 -330.5t87 -330.5t238 -237.5t331 -87zM1188 932q0 -74 -40 -132t-106 -83l187 -346h-138l-182 328h-103v-328h-120v794h264q100 0 169 -67.5t69 -165.5zM806 1042v-223h144q46 0 79 32.5t33 80.5q0 46 -32 78t-80 32h-144z" />
    <glyph glyph-name="macron" unicode="&#xaf;" horiz-adv-x="135" 
d="M95 1211v159h583v-159h-583z" />
    <glyph glyph-name="degree" unicode="&#xb0;" horiz-adv-x="1013" 
d="M507 1009q-115 0 -194.5 79.5t-79.5 194.5q0 114 79.5 193.5t194.5 79.5q113 0 193.5 -80t80.5 -193q0 -115 -80 -194.5t-194 -79.5zM507 1129q65 0 109 44.5t44 109.5t-44 109t-109 44t-109.5 -44t-44.5 -109t44.5 -109.5t109.5 -44.5z" />
    <glyph glyph-name="plusminus" unicode="&#xb1;" horiz-adv-x="1646" 
d="M911 922h625v-177h-625v-369h-176v369h-625v177h625v368h176v-368zM110 0v159h1426v-159h-1426z" />
    <glyph glyph-name="uni00B2" unicode="&#xb2;" horiz-adv-x="770" 
d="M333 916h302v-110h-538l300 356q63 74 81.5 107t18.5 67q0 55 -32 82.5t-78 27.5q-47 2 -79.5 -30t-28.5 -85h-120q-6 100 63.5 164t171.5 64q94 -2 157.5 -59t65.5 -148q0 -63 -27 -113t-109 -148z" />
    <glyph glyph-name="uni00B3" unicode="&#xb3;" horiz-adv-x="752" 
d="M371 1234q104 2 172.5 -58t68.5 -160q0 -97 -69 -165t-172 -68q-97 0 -166 62.5t-69 152.5h120q0 -42 35 -72t83 -30q51 0 85.5 36.5t34.5 88.5q0 51 -34 83.5t-86 32.5h-195h-5l220 286h-258v110h471z" />
    <glyph glyph-name="acute" unicode="&#xb4;" horiz-adv-x="163" 
d="M49 1155l225 381h248l-315 -381h-158z" />
    <glyph glyph-name="uni00B5" unicode="&#xb5;" horiz-adv-x="1249" 
d="M886 1024h220v-1024h-220v136q-59 -73 -141 -114.5t-174 -41.5q-132 0 -236 76v-568h-163v1536h220v-609q0 -100 70 -170.5t170 -70.5q106 0 180 70.5t74 170.5v609z" />
    <glyph glyph-name="paragraph" unicode="&#xb6;" horiz-adv-x="1323" 
d="M625 -307v1157h-49q-171 0 -267.5 89t-96.5 254q0 166 96.5 254.5t267.5 88.5h177v-1843h-128zM945 -307v1843h125v-1843h-125z" />
    <glyph glyph-name="periodcentered" unicode="&#xb7;" horiz-adv-x="604" 
d="M302 627q-45 0 -77.5 31.5t-32.5 78.5q0 44 33 77t77 33q43 0 76.5 -33t33.5 -77q0 -47 -33.5 -78.5t-76.5 -31.5z" />
    <glyph glyph-name="cedilla" unicode="&#xb8;" horiz-adv-x="128" 
d="M307 -532q-75 0 -144 42t-94 103l115 41q17 -27 53.5 -45.5t69.5 -18.5q40 0 67.5 28.5t27.5 69.5q0 62 -52 82t-127 -13l-98 59l100 184h123l-66 -128q102 19 172.5 -34.5t70.5 -149.5q0 -92 -63 -156t-155 -64z" />
    <glyph glyph-name="uni00B9" unicode="&#xb9;" horiz-adv-x="560" 
d="M195 768v663h-113v105h233v-768h-120z" />
    <glyph glyph-name="ordmasculine" unicode="&#xba;" horiz-adv-x="808" 
d="M402 909q-137 0 -233.5 93t-96.5 227q0 133 96.5 226.5t233.5 93.5q140 0 239 -93.5t99 -226.5q0 -134 -98.5 -227t-239.5 -93zM402 1014q90 0 152.5 63t62.5 152q0 87 -63 149.5t-152 62.5q-86 0 -148 -63t-62 -149q0 -88 62 -151.5t148 -63.5z" />
    <glyph glyph-name="guillemotright" unicode="&#xbb;" horiz-adv-x="1405" 
d="M233 195l310 376l-310 376h195l312 -376l-312 -376h-195zM660 195l313 376l-313 376h200l312 -376l-312 -376h-200z" />
    <glyph glyph-name="onequarter" unicode="&#xbc;" horiz-adv-x="2145" 
d="M407 512h-164v873h-164v151h328v-1024zM1413 1531h190l-1071 -1536h-189zM2022 369v-154h-97v-215h-164v215h-489l448 809h205v-655h97zM1495 369h266v496z" />
    <glyph glyph-name="onehalf" unicode="&#xbd;" horiz-adv-x="2137" 
d="M407 512h-164v873h-164v151h328v-1024zM1385 1533h189l-1070 -1536h-189zM1620 148h420v-151h-747l415 492q88 101 114 148t26 95q0 76 -43.5 113.5t-107.5 37.5q-68 2 -112.5 -42.5t-38.5 -118.5h-166q-7 138 88.5 226.5t236.5 88.5q131 0 218.5 -79.5t91.5 -207.5
q0 -87 -37.5 -155t-152.5 -203z" />
    <glyph glyph-name="threequarters" unicode="&#xbe;" horiz-adv-x="2191" 
d="M781 827q0 -135 -96 -229t-237 -94q-135 0 -230 86.5t-95 210.5h166q0 -59 48 -100t114 -41q72 0 120.5 49.5t48.5 122.5q0 71 -48 115t-119 44h-271h-5l304 399h-358v151h653l-331 -417q144 8 240 -74.5t96 -222.5zM1533 1531h190l-1070 -1536h-190zM2071 369v-154h-97
v-215h-164v215h-489l448 809h205v-655h97zM1544 369h266v496z" />
    <glyph glyph-name="questiondown" unicode="&#xbf;" horiz-adv-x="1292" 
d="M596 771q-59 0 -101 42t-42 101q0 61 41.5 102t101.5 41t103 -41t43 -102q0 -59 -43 -101t-103 -42zM607 -576q-203 0 -339.5 128t-136.5 320q0 84 20 147.5t52.5 100.5t71.5 65t78 48.5t71.5 41t52.5 52.5t20 75v189h217v-171q0 -82 -20.5 -140t-53 -89.5t-72 -53.5
t-79.5 -41.5t-72.5 -44t-53 -69.5t-20.5 -110q0 -102 75.5 -170t188.5 -68q117 0 190.5 77.5t67.5 193.5h215q10 -205 -125.5 -343t-347.5 -138z" />
    <glyph glyph-name="Agrave" unicode="&#xc0;" horiz-adv-x="1354" 
d="M773 1667h-159l-314 381h248zM1101 0l-110 325h-627l-111 -325h-271l556 1536h279l555 -1536h-271zM438 545h481l-241 717z" />
    <glyph glyph-name="Aacute" unicode="&#xc1;" horiz-adv-x="1354" 
d="M1057 2048l-315 -381h-158l225 381h248zM1101 0l-110 325h-627l-111 -325h-271l556 1536h279l555 -1536h-271zM438 545h481l-241 717z" />
    <glyph glyph-name="Acircumflex" unicode="&#xc2;" horiz-adv-x="1354" 
d="M678 1905l-151 -238h-166l225 381h185l225 -381h-164zM1101 0l-110 325h-627l-111 -325h-271l556 1536h279l555 -1536h-271zM438 545h481l-241 717z" />
    <glyph glyph-name="Atilde" unicode="&#xc3;" horiz-adv-x="1354" 
d="M548 1846q-40 0 -61 -42t-21 -109h-156q0 133 63 217.5t170 84.5q114 0 197 -115q30 -46 66 -46q80 0 80 151h156q0 -133 -61 -218t-172 -85q-117 0 -197 116q-28 46 -64 46zM1101 0l-110 325h-627l-111 -325h-271l556 1536h279l555 -1536h-271zM438 545h481l-241 717z
" />
    <glyph glyph-name="Adieresis" unicode="&#xc4;" horiz-adv-x="1354" 
d="M476 1720q-54 0 -93.5 39.5t-39.5 93.5q0 55 39.5 94.5t93.5 39.5q56 0 96 -39.5t40 -94.5q0 -54 -40.5 -93.5t-95.5 -39.5zM878 1720q-54 0 -93.5 39.5t-39.5 93.5q0 55 39.5 94.5t93.5 39.5q55 0 94 -39t39 -95q0 -54 -39 -93.5t-94 -39.5zM1101 0l-110 325h-627
l-111 -325h-271l556 1536h279l555 -1536h-271zM438 545h481l-241 717z" />
    <glyph glyph-name="Aring" unicode="&#xc5;" horiz-adv-x="1354" 
d="M1101 0l-110 325h-627l-111 -325h-271l540 1495q-69 69 -69 164q0 96 68.5 163t164.5 67q94 0 161 -67t67 -163q0 -103 -79 -174l537 -1485h-271zM686 1782q-50 0 -84 -36t-34 -87q0 -52 34 -86t84 -34q51 0 85.5 34.5t34.5 85.5t-35 87t-85 36zM438 545h481l-241 717z
" />
    <glyph glyph-name="AE" unicode="&#xc6;" horiz-adv-x="1884" 
d="M1754 1308h-638v-432h551v-216h-551v-432h638v-228h-881v343h-476l-133 -343h-282l617 1536h1155v-228zM479 556h394v768h-100z" />
    <glyph glyph-name="Ccedilla" unicode="&#xc7;" horiz-adv-x="1664" 
d="M899 228q154 0 281 75.5t195 203.5l215 -115q-95 -176 -264.5 -286.5t-375.5 -123.5l-57 -110q102 19 173 -34.5t71 -149.5q0 -92 -63 -156t-155 -64q-75 0 -144 42t-94 103l115 41q17 -27 53.5 -45.5t69.5 -18.5q40 0 67.5 28.5t27.5 69.5q0 62 -52 82t-127 -13l-98 59
l90 166q-199 18 -363 126.5t-259 282.5t-95 377q0 160 62.5 306t168.5 251.5t252 168t306 62.5q221 0 405 -112t286 -300l-215 -115q-68 128 -195 203.5t-281 75.5q-149 0 -273 -71t-196 -195t-72 -274t72 -274t196 -195t273 -71z" />
    <glyph glyph-name="Egrave" unicode="&#xc8;" horiz-adv-x="1192" 
d="M717 1667h-159l-315 381h249zM1062 1308h-629v-425h545v-230h-545v-425h629v-228h-880v1536h880v-228z" />
    <glyph glyph-name="Eacute" unicode="&#xc9;" horiz-adv-x="1192" 
d="M1001 2048l-315 -381h-159l226 381h248zM1062 1308h-629v-425h545v-230h-545v-425h629v-228h-880v1536h880v-228z" />
    <glyph glyph-name="Ecircumflex" unicode="&#xca;" horiz-adv-x="1192" 
d="M622 1905l-151 -238h-166l225 381h184l226 -381h-164zM1062 1308h-629v-425h545v-230h-545v-425h629v-228h-880v1536h880v-228z" />
    <glyph glyph-name="Edieresis" unicode="&#xcb;" horiz-adv-x="1192" 
d="M420 1720q-54 0 -93.5 39.5t-39.5 93.5q0 55 39.5 94.5t93.5 39.5q56 0 96 -39.5t40 -94.5q0 -54 -40.5 -93.5t-95.5 -39.5zM822 1720q-54 0 -93.5 39.5t-39.5 93.5q0 55 39.5 94.5t93.5 39.5q55 0 94 -39t39 -95q0 -54 -39 -93.5t-94 -39.5zM1062 1308h-629v-425h545
v-230h-545v-425h629v-228h-880v1536h880v-228z" />
    <glyph glyph-name="Igrave" unicode="&#xcc;" horiz-adv-x="611" 
d="M399 1667h-158l-315 381h248zM182 0v1536h251v-1536h-251z" />
    <glyph glyph-name="Iacute" unicode="&#xcd;" horiz-adv-x="611" 
d="M210 1667l225 381h249l-315 -381h-159zM182 0v1536h251v-1536h-251z" />
    <glyph glyph-name="Icircumflex" unicode="&#xce;" horiz-adv-x="611" 
d="M154 1667h-167l225 381h185l225 -381h-164l-153 238zM182 0v1536h251v-1536h-251z" />
    <glyph glyph-name="Idieresis" unicode="&#xcf;" horiz-adv-x="611" 
d="M102 1720q-54 0 -93.5 39.5t-39.5 93.5q0 55 39.5 94.5t93.5 39.5q56 0 96 -39.5t40 -94.5q0 -54 -40.5 -93.5t-95.5 -39.5zM504 1720q-54 0 -93.5 39.5t-39.5 93.5q0 55 39.5 94.5t93.5 39.5q55 0 94 -39t39 -95q0 -54 -39 -93.5t-94 -39.5zM182 0v1536h251v-1536h-251z
" />
    <glyph glyph-name="Eth" unicode="&#xd0;" horiz-adv-x="1507" 
d="M630 1536q157 0 299 -60.5t245 -163.5t163.5 -245t60.5 -299t-60.5 -299t-163.5 -245t-245 -163.5t-299 -60.5h-461v684h-151v168h151v684h461zM630 233q220 0 369.5 153t149.5 382t-149.5 382t-369.5 153h-213v-451h254v-168h-254v-451h213z" />
    <glyph glyph-name="Ntilde" unicode="&#xd1;" horiz-adv-x="1689" 
d="M714 1846q-40 0 -61 -42t-21 -109h-156q0 133 63 217.5t170 84.5q114 0 197 -115q30 -46 67 -46q79 0 79 151h156q0 -133 -61 -218t-172 -85q-117 0 -197 116q-28 46 -64 46zM1272 1536h249v-1536h-251l-850 1142v-1142h-251v1536h251l852 -1139v1139z" />
    <glyph glyph-name="Ograve" unicode="&#xd2;" horiz-adv-x="1797" 
d="M993 1667h-158l-315 381h248zM899 -20q-160 0 -306 62.5t-252 168t-168.5 251.5t-62.5 306t62.5 306t168.5 251.5t252 168t306 62.5t306 -62.5t251.5 -168t168 -251.5t62.5 -306t-62.5 -306t-168 -251.5t-251.5 -168t-306 -62.5zM899 228q150 0 274 71t195 195t71 274
t-71 274t-195 195t-274 71q-149 0 -273 -71t-196 -195t-72 -274t72 -274t196 -195t273 -71z" />
    <glyph glyph-name="Oacute" unicode="&#xd3;" horiz-adv-x="1797" 
d="M804 1667l225 381h248l-314 -381h-159zM899 -20q-160 0 -306 62.5t-252 168t-168.5 251.5t-62.5 306t62.5 306t168.5 251.5t252 168t306 62.5t306 -62.5t251.5 -168t168 -251.5t62.5 -306t-62.5 -306t-168 -251.5t-251.5 -168t-306 -62.5zM899 228q150 0 274 71t195 195
t71 274t-71 274t-195 195t-274 71q-149 0 -273 -71t-196 -195t-72 -274t72 -274t196 -195t273 -71z" />
    <glyph glyph-name="Ocircumflex" unicode="&#xd4;" horiz-adv-x="1797" 
d="M748 1667h-167l225 381h185l225 -381h-164l-153 238zM899 -20q-160 0 -306 62.5t-252 168t-168.5 251.5t-62.5 306t62.5 306t168.5 251.5t252 168t306 62.5t306 -62.5t251.5 -168t168 -251.5t62.5 -306t-62.5 -306t-168 -251.5t-251.5 -168t-306 -62.5zM899 228
q150 0 274 71t195 195t71 274t-71 274t-195 195t-274 71q-149 0 -273 -71t-196 -195t-72 -274t72 -274t196 -195t273 -71z" />
    <glyph glyph-name="Otilde" unicode="&#xd5;" horiz-adv-x="1797" 
d="M1029 1684q-117 0 -197 116q-28 46 -64 46q-40 0 -61 -42t-21 -109h-156q0 133 63 217.5t170 84.5q114 0 197 -115q30 -46 67 -46q79 0 79 151h156q0 -133 -61 -218t-172 -85zM899 -20q-160 0 -306 62.5t-252 168t-168.5 251.5t-62.5 306t62.5 306t168.5 251.5t252 168
t306 62.5t306 -62.5t251.5 -168t168 -251.5t62.5 -306t-62.5 -306t-168 -251.5t-251.5 -168t-306 -62.5zM899 228q150 0 274 71t195 195t71 274t-71 274t-195 195t-274 71q-149 0 -273 -71t-196 -195t-72 -274t72 -274t196 -195t273 -71z" />
    <glyph glyph-name="Odieresis" unicode="&#xd6;" horiz-adv-x="1797" 
d="M696 1720q-54 0 -93.5 39.5t-39.5 93.5q0 55 39.5 94.5t93.5 39.5q56 0 96 -39.5t40 -94.5q0 -54 -40.5 -93.5t-95.5 -39.5zM1098 1720q-54 0 -93.5 39.5t-39.5 93.5q0 55 39.5 94.5t93.5 39.5q55 0 94 -39t39 -95q0 -54 -39 -93.5t-94 -39.5zM899 -20q-160 0 -306 62.5
t-252 168t-168.5 251.5t-62.5 306t62.5 306t168.5 251.5t252 168t306 62.5t306 -62.5t251.5 -168t168 -251.5t62.5 -306t-62.5 -306t-168 -251.5t-251.5 -168t-306 -62.5zM899 228q150 0 274 71t195 195t71 274t-71 274t-195 195t-274 71q-149 0 -273 -71t-196 -195
t-72 -274t72 -274t196 -195t273 -71z" />
    <glyph glyph-name="multiply" unicode="&#xd7;" horiz-adv-x="1530" 
d="M1295 1014l-379 -379l379 -379l-138 -141l-381 379l-379 -379l-141 141l379 379l-379 379l141 141l379 -379l381 379z" />
    <glyph glyph-name="Oslash" unicode="&#xd8;" horiz-adv-x="1797" 
d="M1423 1357q124 -112 194 -265t70 -324q0 -160 -62.5 -306t-168 -251.5t-251.5 -168t-306 -62.5q-197 0 -369 92l-128 -185l-164 98l136 194q-124 112 -194 265t-70 324q0 160 62.5 306t168.5 251.5t252 168t306 62.5q199 0 371 -92l125 180l161 -98zM358 768
q0 -114 41.5 -213t117.5 -171l609 876q-107 48 -227 48q-149 0 -273 -71t-196 -195t-72 -274zM899 228q150 0 274 71t195 195t71 274q0 228 -156 384l-610 -876q104 -48 226 -48z" />
    <glyph glyph-name="Ugrave" unicode="&#xd9;" horiz-adv-x="1538" 
d="M863 1667h-159l-315 381h248zM768 -20q-172 0 -311 67.5t-217.5 186t-78.5 265.5v1037h251v-993q0 -142 101.5 -236.5t254.5 -94.5q154 0 256 94.5t102 236.5v993h251v-1037q0 -146 -79 -265t-218.5 -186.5t-311.5 -67.5z" />
    <glyph glyph-name="Uacute" unicode="&#xda;" horiz-adv-x="1538" 
d="M673 1667l226 381h248l-315 -381h-159zM768 -20q-172 0 -311 67.5t-217.5 186t-78.5 265.5v1037h251v-993q0 -142 101.5 -236.5t254.5 -94.5q154 0 256 94.5t102 236.5v993h251v-1037q0 -146 -79 -265t-218.5 -186.5t-311.5 -67.5z" />
    <glyph glyph-name="Ucircumflex" unicode="&#xdb;" horiz-adv-x="1538" 
d="M617 1667h-166l225 381h184l225 -381h-163l-154 238zM768 -20q-172 0 -311 67.5t-217.5 186t-78.5 265.5v1037h251v-993q0 -142 101.5 -236.5t254.5 -94.5q154 0 256 94.5t102 236.5v993h251v-1037q0 -146 -79 -265t-218.5 -186.5t-311.5 -67.5z" />
    <glyph glyph-name="Udieresis" unicode="&#xdc;" horiz-adv-x="1538" 
d="M566 1720q-54 0 -93.5 39.5t-39.5 93.5q0 55 39.5 94.5t93.5 39.5q56 0 95.5 -39.5t39.5 -94.5q0 -54 -40 -93.5t-95 -39.5zM968 1720q-54 0 -93.5 39.5t-39.5 93.5q0 55 39.5 94.5t93.5 39.5q55 0 94 -39t39 -95q0 -54 -39 -93.5t-94 -39.5zM768 -20q-172 0 -311 67.5
t-217.5 186t-78.5 265.5v1037h251v-993q0 -142 101.5 -236.5t254.5 -94.5q154 0 256 94.5t102 236.5v993h251v-1037q0 -146 -79 -265t-218.5 -186.5t-311.5 -67.5z" />
    <glyph glyph-name="Yacute" unicode="&#xdd;" horiz-adv-x="1292" 
d="M1027 2048l-315 -381h-159l225 381h249zM1308 1536l-535 -809v-727h-251v722l-537 814h294l369 -579l371 579h289z" />
    <glyph glyph-name="Thorn" unicode="&#xde;" horiz-adv-x="1287" 
d="M781 1318q182 0 311 -131t129 -317q0 -182 -128.5 -308.5t-311.5 -126.5h-356v-435h-241v1318v218h241v-218h356zM765 660q97 0 160 61.5t63 156.5q0 93 -63.5 154t-159.5 61h-340v-433h340z" />
    <glyph glyph-name="germandbls" unicode="&#xdf;" horiz-adv-x="1420" 
d="M1055 796q103 -60 162.5 -161t59.5 -223q0 -181 -118.5 -299.5t-293.5 -112.5h-271v228h228q88 2 150 55.5t62 144.5q0 100 -73.5 170t-179.5 70h-97v200h38q100 0 170.5 68.5t70.5 166.5q0 96 -73 158.5t-186 62.5q-119 0 -199 -71t-80 -178v-1075h-241v1075
q0 199 148 330t369 131q212 0 350.5 -121.5t138.5 -306.5t-135 -312z" />
    <glyph glyph-name="agrave" unicode="&#xe0;" horiz-adv-x="1377" 
d="M737 1155h-158l-315 381h248zM1285 200h56v-200q-35 -20 -81 -20q-92 0 -165 46.5t-112 124.5q-66 -80 -161.5 -125.5t-204.5 -45.5q-107 0 -203 41.5t-165.5 112.5t-110.5 170t-41 208t41 208t110.5 170t165.5 112.5t203 41.5q189 0 330 -128v108h243v-709
q0 -115 95 -115zM648 205q127 0 217 89.5t90 217.5t-90 217.5t-217 89.5q-129 0 -218.5 -89t-89.5 -218t89.5 -218t218.5 -89z" />
    <glyph glyph-name="aacute" unicode="&#xe1;" horiz-adv-x="1377" 
d="M1021 1536l-314 -381h-159l225 381h248zM1285 200h56v-200q-35 -20 -81 -20q-92 0 -165 46.5t-112 124.5q-66 -80 -161.5 -125.5t-204.5 -45.5q-107 0 -203 41.5t-165.5 112.5t-110.5 170t-41 208t41 208t110.5 170t165.5 112.5t203 41.5q189 0 330 -128v108h243v-709
q0 -115 95 -115zM648 205q127 0 217 89.5t90 217.5t-90 217.5t-217 89.5q-129 0 -218.5 -89t-89.5 -218t89.5 -218t218.5 -89z" />
    <glyph glyph-name="acircumflex" unicode="&#xe2;" horiz-adv-x="1377" 
d="M643 1393l-151 -238h-167l225 381h185l225 -381h-164zM1285 200h56v-200q-35 -20 -81 -20q-92 0 -165 46.5t-112 124.5q-66 -80 -161.5 -125.5t-204.5 -45.5q-107 0 -203 41.5t-165.5 112.5t-110.5 170t-41 208t41 208t110.5 170t165.5 112.5t203 41.5q189 0 330 -128
v108h243v-709q0 -115 95 -115zM648 205q127 0 217 89.5t90 217.5t-90 217.5t-217 89.5q-129 0 -218.5 -89t-89.5 -218t89.5 -218t218.5 -89z" />
    <glyph glyph-name="atilde" unicode="&#xe3;" horiz-adv-x="1377" 
d="M512 1334q-40 0 -61 -42t-21 -109h-156q0 133 63 217.5t170 84.5q114 0 197 -115q30 -46 67 -46q79 0 79 151h156q0 -133 -61 -218t-172 -85q-117 0 -197 116q-28 46 -64 46zM1285 200h56v-200q-35 -20 -81 -20q-92 0 -165 46.5t-112 124.5q-66 -80 -161.5 -125.5
t-204.5 -45.5q-107 0 -203 41.5t-165.5 112.5t-110.5 170t-41 208t41 208t110.5 170t165.5 112.5t203 41.5q189 0 330 -128v108h243v-709q0 -115 95 -115zM648 205q127 0 217 89.5t90 217.5t-90 217.5t-217 89.5q-129 0 -218.5 -89t-89.5 -218t89.5 -218t218.5 -89z" />
    <glyph glyph-name="adieresis" unicode="&#xe4;" horiz-adv-x="1377" 
d="M440 1208q-54 0 -93.5 39.5t-39.5 93.5q0 55 39.5 94.5t93.5 39.5q56 0 96 -39.5t40 -94.5q0 -54 -40.5 -93.5t-95.5 -39.5zM842 1208q-54 0 -93.5 39.5t-39.5 93.5q0 55 39.5 94.5t93.5 39.5q55 0 94 -39t39 -95q0 -54 -39 -93.5t-94 -39.5zM1285 200h56v-200
q-35 -20 -81 -20q-92 0 -165 46.5t-112 124.5q-66 -80 -161.5 -125.5t-204.5 -45.5q-107 0 -203 41.5t-165.5 112.5t-110.5 170t-41 208t41 208t110.5 170t165.5 112.5t203 41.5q189 0 330 -128v108h243v-709q0 -115 95 -115zM648 205q127 0 217 89.5t90 217.5t-90 217.5
t-217 89.5q-129 0 -218.5 -89t-89.5 -218t89.5 -218t218.5 -89z" />
    <glyph glyph-name="aring" unicode="&#xe5;" horiz-adv-x="1377" 
d="M643 1114q-96 0 -164.5 68t-68.5 162q0 96 68.5 163t164.5 67q94 0 160.5 -67t66.5 -163q0 -94 -67 -162t-160 -68zM643 1467q-50 0 -84 -36t-34 -87q0 -52 34 -86t84 -34q51 0 85.5 34.5t34.5 85.5t-35 87t-85 36zM1285 200h56v-200q-35 -20 -81 -20q-92 0 -165 46.5
t-112 124.5q-66 -80 -161.5 -125.5t-204.5 -45.5q-107 0 -203 41.5t-165.5 112.5t-110.5 170t-41 208t41 208t110.5 170t165.5 112.5t203 41.5q189 0 330 -128v108h243v-709q0 -115 95 -115zM648 205q127 0 217 89.5t90 217.5t-90 217.5t-217 89.5q-129 0 -218.5 -89
t-89.5 -218t89.5 -218t218.5 -89z" />
    <glyph glyph-name="ae" unicode="&#xe6;" horiz-adv-x="1960" 
d="M1871 517l-2 -43h-840q10 -130 93.5 -211t211.5 -81q97 0 170 47t106 129h243q-45 -170 -184.5 -274t-334.5 -104q-132 0 -243 49t-185 137q-94 -89 -207 -137.5t-228 -48.5q-170 0 -272 87.5t-102 232.5q0 150 108 236t292 86h279v44q0 85 -57 138.5t-148 55.5
q-77 2 -135.5 -34t-69.5 -94l-223 67q38 111 155 178t275 67q118 0 213.5 -39.5t153.5 -111.5q74 72 174.5 111.5t216.5 39.5q232 0 384 -148.5t156 -378.5zM1334 840q-101 0 -175 -51.5t-109 -140.5h555q-34 90 -103.5 141t-167.5 51zM509 169q77 0 159 46.5t141 122.5
q-16 58 -23 110h-251q-90 0 -141 -37.5t-51 -105.5q0 -63 45.5 -99.5t120.5 -36.5z" />
    <glyph glyph-name="ccedilla" unicode="&#xe7;" horiz-adv-x="1239" 
d="M648 205q92 0 167 48t112 128h253q-41 -170 -172 -279t-317 -120l-56 -110q102 19 172.5 -34.5t70.5 -149.5q0 -92 -63 -156t-155 -64q-75 0 -144 42t-94 103l116 41q17 -27 53 -45.5t69 -18.5q40 0 67.5 28.5t27.5 69.5q0 62 -52 82t-127 -13l-97 59l92 169
q-209 25 -341.5 173t-132.5 354q0 148 71 270t197.5 192t282.5 70q201 0 345 -111t187 -290h-253q-37 80 -112 128t-167 48q-129 0 -218.5 -88.5t-89.5 -218.5t89.5 -218.5t218.5 -88.5z" />
    <glyph glyph-name="egrave" unicode="&#xe8;" horiz-adv-x="1274" 
d="M750 1160h-159l-315 381h249zM1185 517l-2 -43h-840q10 -130 93.5 -211t211.5 -81q97 0 170 47t106 129h243q-45 -170 -184.5 -274t-334.5 -104q-238 0 -394.5 151t-156.5 381q0 151 71.5 273t197 190.5t279.5 68.5q232 0 384 -148.5t156 -378.5zM648 840
q-101 0 -175 -51.5t-109 -140.5h555q-34 90 -103.5 141t-167.5 51z" />
    <glyph glyph-name="eacute" unicode="&#xe9;" horiz-adv-x="1274" 
d="M1034 1541l-315 -381h-158l225 381h248zM1185 517l-2 -43h-840q10 -130 93.5 -211t211.5 -81q97 0 170 47t106 129h243q-45 -170 -184.5 -274t-334.5 -104q-238 0 -394.5 151t-156.5 381q0 151 71.5 273t197 190.5t279.5 68.5q232 0 384 -148.5t156 -378.5zM648 840
q-101 0 -175 -51.5t-109 -140.5h555q-34 90 -103.5 141t-167.5 51z" />
    <glyph glyph-name="ecircumflex" unicode="&#xea;" horiz-adv-x="1274" 
d="M655 1398l-151 -238h-166l225 381h185l225 -381h-164zM1185 517l-2 -43h-840q10 -130 93.5 -211t211.5 -81q97 0 170 47t106 129h243q-45 -170 -184.5 -274t-334.5 -104q-238 0 -394.5 151t-156.5 381q0 151 71.5 273t197 190.5t279.5 68.5q232 0 384 -148.5t156 -378.5z
M648 840q-101 0 -175 -51.5t-109 -140.5h555q-34 90 -103.5 141t-167.5 51z" />
    <glyph glyph-name="edieresis" unicode="&#xeb;" horiz-adv-x="1274" 
d="M453 1213q-54 0 -93.5 40t-39.5 94q0 55 39.5 94t93.5 39q56 0 96 -39t40 -94q0 -54 -40.5 -94t-95.5 -40zM855 1213q-54 0 -93.5 40t-39.5 94q0 55 39.5 94t93.5 39q55 0 94 -39t39 -94q0 -54 -39 -94t-94 -40zM1185 517l-2 -43h-840q10 -130 93.5 -211t211.5 -81
q97 0 170 47t106 129h243q-45 -170 -184.5 -274t-334.5 -104q-238 0 -394.5 151t-156.5 381q0 151 71.5 273t197 190.5t279.5 68.5q232 0 384 -148.5t156 -378.5zM648 840q-101 0 -175 -51.5t-109 -140.5h555q-34 90 -103.5 141t-167.5 51z" />
    <glyph glyph-name="igrave" unicode="&#xec;" horiz-adv-x="606" 
d="M399 1155h-158l-315 381h248zM182 0v1024h243v-1024h-243z" />
    <glyph glyph-name="iacute" unicode="&#xed;" horiz-adv-x="606" 
d="M210 1155l225 381h249l-315 -381h-159zM182 0v1024h243v-1024h-243z" />
    <glyph glyph-name="icircumflex" unicode="&#xee;" horiz-adv-x="606" 
d="M154 1155h-167l225 381h185l225 -381h-164l-153 238zM182 0v1024h243v-1024h-243z" />
    <glyph glyph-name="idieresis" unicode="&#xef;" horiz-adv-x="606" 
d="M102 1208q-54 0 -93.5 39.5t-39.5 93.5q0 55 39.5 94.5t93.5 39.5q56 0 96 -39.5t40 -94.5q0 -54 -40.5 -93.5t-95.5 -39.5zM504 1208q-54 0 -93.5 39.5t-39.5 93.5q0 55 39.5 94.5t93.5 39.5q55 0 94 -39t39 -95q0 -54 -39 -93.5t-94 -39.5zM182 0v1024h243v-1024h-243z
" />
    <glyph glyph-name="eth" unicode="&#xf0;" horiz-adv-x="1300" 
d="M827 1426q182 -141 288 -380.5t106 -533.5q0 -146 -74.5 -268.5t-204 -193t-284.5 -70.5q-154 0 -283 70.5t-203.5 193t-74.5 268.5t74.5 268.5t203.5 193t283 70.5q120 0 233 -46q-69 162 -192 264l-103 -130l-112 89l92 118q-128 56 -269 56l49 195q188 0 351 -87
l97 123l112 -85zM658 202q129 0 219.5 90.5t90.5 219.5t-90.5 219.5t-219.5 90.5t-218 -90.5t-89 -219.5t89 -219.5t218 -90.5z" />
    <glyph glyph-name="ntilde" unicode="&#xf1;" horiz-adv-x="1200" 
d="M481 1334q-40 0 -61 -42t-21 -109h-156q0 133 63 217.5t170 84.5q114 0 197 -115q30 -46 67 -46q79 0 79 151h156q0 -133 -61 -218t-172 -85q-117 0 -197 116q-28 46 -64 46zM676 1044q152 0 263 -114.5t111 -279.5v-650h-241v625q0 83 -56 138.5t-141 55.5t-142.5 -56
t-57.5 -138v-625h-243v1024h243v-97q109 117 264 117z" />
    <glyph glyph-name="ograve" unicode="&#xf2;" horiz-adv-x="1295" 
d="M742 1155h-158l-315 381h248zM648 -20q-156 0 -282.5 70t-197.5 192t-71 270t71 270t197.5 192t282.5 70t282 -70t197 -192t71 -270t-71 -270t-197 -192t-282 -70zM648 205q129 0 218 89t89 218t-89 218t-218 89q-130 0 -219 -89t-89 -218t89 -218t219 -89z" />
    <glyph glyph-name="oacute" unicode="&#xf3;" horiz-adv-x="1295" 
d="M553 1155l225 381h249l-315 -381h-159zM648 -20q-156 0 -282.5 70t-197.5 192t-71 270t71 270t197.5 192t282.5 70t282 -70t197 -192t71 -270t-71 -270t-197 -192t-282 -70zM648 205q129 0 218 89t89 218t-89 218t-218 89q-130 0 -219 -89t-89 -218t89 -218t219 -89z" />
    <glyph glyph-name="ocircumflex" unicode="&#xf4;" horiz-adv-x="1295" 
d="M497 1155h-167l226 381h184l225 -381h-164l-153 238zM648 -20q-156 0 -282.5 70t-197.5 192t-71 270t71 270t197.5 192t282.5 70t282 -70t197 -192t71 -270t-71 -270t-197 -192t-282 -70zM648 205q129 0 218 89t89 218t-89 218t-218 89q-130 0 -219 -89t-89 -218t89 -218
t219 -89z" />
    <glyph glyph-name="otilde" unicode="&#xf5;" horiz-adv-x="1295" 
d="M778 1172q-117 0 -197 116q-28 46 -64 46q-40 0 -61 -42t-21 -109h-156q0 133 63 217.5t170 84.5q114 0 197 -115q30 -46 67 -46q79 0 79 151h156q0 -133 -61 -218t-172 -85zM648 -20q-156 0 -282.5 70t-197.5 192t-71 270t71 270t197.5 192t282.5 70t282 -70t197 -192
t71 -270t-71 -270t-197 -192t-282 -70zM648 205q129 0 218 89t89 218t-89 218t-218 89q-130 0 -219 -89t-89 -218t89 -218t219 -89z" />
    <glyph glyph-name="odieresis" unicode="&#xf6;" horiz-adv-x="1295" 
d="M445 1208q-54 0 -93.5 39.5t-39.5 93.5q0 55 39.5 94.5t93.5 39.5q56 0 96 -39.5t40 -94.5q0 -54 -40.5 -93.5t-95.5 -39.5zM847 1208q-54 0 -93.5 39.5t-39.5 93.5q0 55 39.5 94.5t93.5 39.5q55 0 94 -39t39 -95q0 -54 -39 -93.5t-94 -39.5zM648 -20q-156 0 -282.5 70
t-197.5 192t-71 270t71 270t197.5 192t282.5 70t282 -70t197 -192t71 -270t-71 -270t-197 -192t-282 -70zM648 205q129 0 218 89t89 218t-89 218t-218 89q-130 0 -219 -89t-89 -218t89 -218t219 -89z" />
    <glyph glyph-name="divide" unicode="&#xf7;" horiz-adv-x="1487" 
d="M745 812q-53 0 -92 37.5t-39 92.5q0 52 39.5 91.5t91.5 39.5t91.5 -39.5t39.5 -91.5q0 -55 -39 -92.5t-92 -37.5zM131 499v128h1228v-128h-1228zM745 54q-53 0 -92 37.5t-39 92.5q0 53 39.5 92t91.5 39t91.5 -39t39.5 -92q0 -55 -39 -92.5t-92 -37.5z" />
    <glyph glyph-name="oslash" unicode="&#xf8;" horiz-adv-x="1295" 
d="M1009 922q89 -74 139 -180.5t50 -229.5q0 -148 -71 -270t-197 -192t-282 -70q-139 0 -254 56l-82 -118l-110 67l85 120q-90 74 -140 179t-50 228q0 148 71 270t197.5 192t282.5 70q136 0 256 -56l79 115l108 -64zM340 512q0 -122 82 -212l346 496q-55 23 -120 23
q-130 0 -219 -89t-89 -218zM648 205q129 0 218 89t89 218q0 124 -85 212l-343 -496q55 -23 121 -23z" />
    <glyph glyph-name="ugrave" unicode="&#xf9;" horiz-adv-x="1141" 
d="M673 1155h-158l-315 381h248zM571 -20q-201 0 -315.5 107t-114.5 292v645h240v-614q0 -93 53 -149t137 -56q83 0 136 56t53 149v614h241v-645q0 -185 -114.5 -292t-315.5 -107z" />
    <glyph glyph-name="uacute" unicode="&#xfa;" horiz-adv-x="1141" 
d="M484 1155l225 381h248l-314 -381h-159zM571 -20q-201 0 -315.5 107t-114.5 292v645h240v-614q0 -93 53 -149t137 -56q83 0 136 56t53 149v614h241v-645q0 -185 -114.5 -292t-315.5 -107z" />
    <glyph glyph-name="ucircumflex" unicode="&#xfb;" horiz-adv-x="1141" 
d="M428 1155h-167l225 381h185l225 -381h-164l-153 238zM571 -20q-201 0 -315.5 107t-114.5 292v645h240v-614q0 -93 53 -149t137 -56q83 0 136 56t53 149v614h241v-645q0 -185 -114.5 -292t-315.5 -107z" />
    <glyph glyph-name="udieresis" unicode="&#xfc;" horiz-adv-x="1141" 
d="M376 1208q-54 0 -93.5 39.5t-39.5 93.5q0 55 39.5 94.5t93.5 39.5q56 0 96 -39.5t40 -94.5q0 -54 -40.5 -93.5t-95.5 -39.5zM778 1208q-54 0 -93.5 39.5t-39.5 93.5q0 55 39.5 94.5t93.5 39.5q55 0 94 -39t39 -95q0 -54 -39 -93.5t-94 -39.5zM571 -20q-201 0 -315.5 107
t-114.5 292v645h240v-614q0 -93 53 -149t137 -56q83 0 136 56t53 149v614h241v-645q0 -185 -114.5 -292t-315.5 -107z" />
    <glyph glyph-name="yacute" unicode="&#xfd;" horiz-adv-x="1103" 
d="M929 1536l-315 -381h-158l225 381h248zM837 1024h261l-658 -1638h-256l244 596l-423 1042h259l292 -758z" />
    <glyph glyph-name="thorn" unicode="&#xfe;" horiz-adv-x="1372" 
d="M755 1044q107 0 203 -41.5t165.5 -112.5t110.5 -170t41 -208t-41 -208t-110.5 -170t-165.5 -112.5t-203 -41.5q-189 0 -330 128v-722h-241v2252h241v-722q141 128 330 128zM732 205q129 0 218 89t89 218t-89 218t-218 89t-218 -89t-89 -218t89 -218t218 -89z" />
    <glyph glyph-name="ydieresis" unicode="&#xff;" horiz-adv-x="1103" 
d="M348 1208q-54 0 -93.5 39.5t-39.5 93.5q0 55 39.5 94.5t93.5 39.5q56 0 96 -39.5t40 -94.5q0 -54 -40.5 -93.5t-95.5 -39.5zM750 1208q-54 0 -93.5 39.5t-39.5 93.5q0 55 39.5 94.5t93.5 39.5q55 0 94 -39t39 -95q0 -54 -39 -93.5t-94 -39.5zM837 1024h261l-658 -1638
h-256l244 596l-423 1042h259l292 -758z" />
    <glyph glyph-name="Amacron" unicode="&#x100;" horiz-adv-x="1354" 
d="M970 1882v-159h-583v159h583zM1101 0l-110 325h-627l-111 -325h-271l556 1536h279l555 -1536h-271zM438 545h481l-241 717z" />
    <glyph glyph-name="amacron" unicode="&#x101;" horiz-adv-x="1377" 
d="M934 1370v-159h-583v159h583zM1285 200h56v-200q-35 -20 -81 -20q-92 0 -165 46.5t-112 124.5q-66 -80 -161.5 -125.5t-204.5 -45.5q-107 0 -203 41.5t-165.5 112.5t-110.5 170t-41 208t41 208t110.5 170t165.5 112.5t203 41.5q189 0 330 -128v108h243v-709
q0 -115 95 -115zM648 205q127 0 217 89.5t90 217.5t-90 217.5t-217 89.5q-129 0 -218.5 -89t-89.5 -218t89.5 -218t218.5 -89z" />
    <glyph glyph-name="Abreve" unicode="&#x102;" horiz-adv-x="1354" 
d="M676 1661q-159 0 -256 88t-97 248h140q0 -79 61 -137t152 -58q93 0 154 58t61 137h141q0 -160 -97.5 -248t-258.5 -88zM1101 0l-110 325h-627l-111 -325h-271l556 1536h279l555 -1536h-271zM438 545h481l-241 717z" />
    <glyph glyph-name="abreve" unicode="&#x103;" horiz-adv-x="1377" 
d="M640 1149q-159 0 -256 88t-97 248h141q0 -79 60.5 -137t151.5 -58q93 0 154 58t61 137h141q0 -160 -97.5 -248t-258.5 -88zM1285 200h56v-200q-35 -20 -81 -20q-92 0 -165 46.5t-112 124.5q-66 -80 -161.5 -125.5t-204.5 -45.5q-107 0 -203 41.5t-165.5 112.5t-110.5 170
t-41 208t41 208t110.5 170t165.5 112.5t203 41.5q189 0 330 -128v108h243v-709q0 -115 95 -115zM648 205q127 0 217 89.5t90 217.5t-90 217.5t-217 89.5q-129 0 -218.5 -89t-89.5 -218t89.5 -218t218.5 -89z" />
    <glyph glyph-name="Aogonek" unicode="&#x104;" horiz-adv-x="1354" 
d="M1416 -305l76 -110q-119 -123 -296 -115q-113 7 -178.5 70t-65.5 163q0 93 61 164t172 133h-84l-110 325h-627l-111 -325h-271l556 1536h279l555 -1536q-66 -34 -105.5 -58.5t-80.5 -58.5t-59.5 -72.5t-18.5 -84.5q0 -62 33.5 -97.5t92.5 -35.5q54 0 102.5 27t79.5 75z
M438 545h481l-241 717z" />
    <glyph glyph-name="aogonek" unicode="&#x105;" horiz-adv-x="1377" 
d="M1385 -305l77 -110q-119 -123 -297 -115q-113 7 -178 70t-65 163q0 94 60 164.5t170 129.5q-113 43 -169 154q-66 -80 -161.5 -125.5t-204.5 -45.5q-107 0 -203 41.5t-165.5 112.5t-110.5 170t-41 208t41 208t110.5 170t165.5 112.5t203 41.5q189 0 330 -128v108h243
v-709q0 -115 95 -115h56v-200l-7 -5q-62 -32 -102.5 -57t-79 -57.5t-56.5 -71t-18 -83.5q0 -62 33 -97.5t92 -35.5q54 0 102.5 27t79.5 75zM648 205q127 0 217 89.5t90 217.5t-90 217.5t-217 89.5q-129 0 -218.5 -89t-89.5 -218t89.5 -218t218.5 -89z" />
    <glyph glyph-name="Cacute" unicode="&#x106;" horiz-adv-x="1664" 
d="M804 1667l225 381h248l-314 -381h-159zM899 -20q-160 0 -306 62.5t-252 168t-168.5 251.5t-62.5 306t62.5 306t168.5 251.5t252 168t306 62.5q221 0 405 -112t286 -300l-215 -115q-68 128 -195 203.5t-281 75.5q-149 0 -273 -71t-196 -195t-72 -274t72 -274t196 -195
t273 -71q154 0 281 75.5t195 203.5l215 -115q-102 -188 -286 -300t-405 -112z" />
    <glyph glyph-name="cacute" unicode="&#x107;" horiz-adv-x="1239" 
d="M532 1160l226 381h248l-315 -381h-159zM648 -20q-156 0 -282.5 70t-197.5 192t-71 270t71 270t197.5 192t282.5 70q201 0 345 -111t187 -290h-253q-37 80 -112 128t-167 48q-129 0 -218.5 -88.5t-89.5 -218.5t89.5 -218.5t218.5 -88.5q92 0 167 48t112 128h253
q-43 -179 -187 -290t-345 -111z" />
    <glyph glyph-name="Cdotaccent" unicode="&#x10a;" horiz-adv-x="1664" 
d="M899 1677q-58 0 -101 42.5t-43 100.5q0 61 43 103.5t101 42.5q60 0 102.5 -42.5t42.5 -103.5q0 -58 -43 -100.5t-102 -42.5zM899 -20q-160 0 -306 62.5t-252 168t-168.5 251.5t-62.5 306t62.5 306t168.5 251.5t252 168t306 62.5q221 0 405 -112t286 -300l-215 -115
q-68 128 -195 203.5t-281 75.5q-149 0 -273 -71t-196 -195t-72 -274t72 -274t196 -195t273 -71q154 0 281 75.5t195 203.5l215 -115q-102 -188 -286 -300t-405 -112z" />
    <glyph glyph-name="cdotaccent" unicode="&#x10b;" horiz-adv-x="1239" 
d="M627 1170q-58 0 -100.5 42.5t-42.5 100.5q0 61 42.5 103.5t100.5 42.5q60 0 103 -42.5t43 -103.5q0 -58 -43.5 -100.5t-102.5 -42.5zM648 -20q-156 0 -282.5 70t-197.5 192t-71 270t71 270t197.5 192t282.5 70q201 0 345 -111t187 -290h-253q-37 80 -112 128t-167 48
q-129 0 -218.5 -88.5t-89.5 -218.5t89.5 -218.5t218.5 -88.5q92 0 167 48t112 128h253q-43 -179 -187 -290t-345 -111z" />
    <glyph glyph-name="Ccaron" unicode="&#x10c;" horiz-adv-x="1664" 
d="M806 1667l-225 381h167l151 -236l153 236h164l-225 -381h-185zM899 -20q-160 0 -306 62.5t-252 168t-168.5 251.5t-62.5 306t62.5 306t168.5 251.5t252 168t306 62.5q221 0 405 -112t286 -300l-215 -115q-68 128 -195 203.5t-281 75.5q-149 0 -273 -71t-196 -195
t-72 -274t72 -274t196 -195t273 -71q154 0 281 75.5t195 203.5l215 -115q-102 -188 -286 -300t-405 -112z" />
    <glyph glyph-name="ccaron" unicode="&#x10d;" horiz-adv-x="1239" 
d="M535 1160l-225 381h166l151 -235l154 235h164l-226 -381h-184zM648 -20q-156 0 -282.5 70t-197.5 192t-71 270t71 270t197.5 192t282.5 70q201 0 345 -111t187 -290h-253q-37 80 -112 128t-167 48q-129 0 -218.5 -88.5t-89.5 -218.5t89.5 -218.5t218.5 -88.5q92 0 167 48
t112 128h253q-43 -179 -187 -290t-345 -111z" />
    <glyph glyph-name="Dcaron" unicode="&#x10e;" horiz-adv-x="1507" 
d="M538 1667l-226 381h167l151 -236l153 236h164l-225 -381h-184zM169 0v1536h461q157 0 299 -60.5t245 -163.5t163.5 -245t60.5 -299t-60.5 -299t-163.5 -245t-245 -163.5t-299 -60.5h-461zM417 233h213q220 0 369.5 153t149.5 382t-149.5 382t-369.5 153h-213v-1070z" />
    <glyph glyph-name="dcaron" unicode="&#x10f;" horiz-adv-x="1676" 
d="M947 916v907h243v-1823h-243v108q-141 -128 -330 -128q-107 0 -203 41.5t-165.5 112.5t-110.5 170t-41 208t41 208t110.5 170t165.5 112.5t203 41.5q189 0 330 -128zM1482 1823h228l-256 -617h-143zM648 205q127 0 217 89.5t90 217.5t-90 217.5t-217 89.5
q-129 0 -218.5 -89t-89.5 -218t89.5 -218t218.5 -89z" />
    <glyph glyph-name="Dcroat" unicode="&#x110;" horiz-adv-x="1507" 
d="M630 1536q157 0 299 -60.5t245 -163.5t163.5 -245t60.5 -299t-60.5 -299t-163.5 -245t-245 -163.5t-299 -60.5h-461v684h-151v168h151v684h461zM630 233q220 0 369.5 153t149.5 382t-149.5 382t-369.5 153h-213v-451h254v-168h-254v-451h213z" />
    <glyph glyph-name="dcroat" unicode="&#x111;" horiz-adv-x="1359" 
d="M1321 1462v-169h-131v-1293h-243v108q-141 -128 -330 -128q-107 0 -203 41.5t-165.5 112.5t-110.5 170t-41 208t41 208t110.5 170t165.5 112.5t203 41.5q189 0 330 -128v377h-279v169h279v361h243v-361h131zM648 205q127 0 217 89.5t90 217.5t-90 217.5t-217 89.5
q-129 0 -218.5 -89t-89.5 -218t89.5 -218t218.5 -89z" />
    <glyph glyph-name="Emacron" unicode="&#x112;" horiz-adv-x="1192" 
d="M914 1882v-159h-584v159h584zM1062 1308h-629v-425h545v-230h-545v-425h629v-228h-880v1536h880v-228z" />
    <glyph glyph-name="emacron" unicode="&#x113;" horiz-adv-x="1274" 
d="M947 1375v-159h-583v159h583zM1185 517l-2 -43h-840q10 -130 93.5 -211t211.5 -81q97 0 170 47t106 129h243q-45 -170 -184.5 -274t-334.5 -104q-238 0 -394.5 151t-156.5 381q0 151 71.5 273t197 190.5t279.5 68.5q232 0 384 -148.5t156 -378.5zM648 840
q-101 0 -175 -51.5t-109 -140.5h555q-34 90 -103.5 141t-167.5 51z" />
    <glyph glyph-name="Edotaccent" unicode="&#x116;" horiz-adv-x="1192" 
d="M622 1677q-58 0 -100.5 42.5t-42.5 100.5q0 61 42.5 103.5t100.5 42.5q60 0 103 -42.5t43 -103.5q0 -58 -43.5 -100.5t-102.5 -42.5zM1062 1308h-629v-425h545v-230h-545v-425h629v-228h-880v1536h880v-228z" />
    <glyph glyph-name="edotaccent" unicode="&#x117;" horiz-adv-x="1274" 
d="M655 1170q-58 0 -100.5 42.5t-42.5 100.5q0 61 42.5 103.5t100.5 42.5q60 0 103 -42.5t43 -103.5q0 -58 -43.5 -100.5t-102.5 -42.5zM1185 517l-2 -43h-840q10 -130 93.5 -211t211.5 -81q97 0 170 47t106 129h243q-45 -170 -184.5 -274t-334.5 -104q-238 0 -394.5 151
t-156.5 381q0 151 71.5 273t197 190.5t279.5 68.5q232 0 384 -148.5t156 -378.5zM648 840q-101 0 -175 -51.5t-109 -140.5h555q-34 90 -103.5 141t-167.5 51z" />
    <glyph glyph-name="Eogonek" unicode="&#x118;" horiz-adv-x="1192" 
d="M1106 -305l77 -110q-119 -123 -297 -115q-113 7 -178 70t-65 163q0 93 61 164t172 133h-694v1536h880v-228h-629v-425h545v-230h-545v-425h629v-228q-66 -34 -105.5 -58.5t-80 -58.5t-59 -72.5t-18.5 -84.5q0 -62 33 -97.5t92 -35.5q54 0 102.5 27t79.5 75z" />
    <glyph glyph-name="eogonek" unicode="&#x119;" horiz-adv-x="1274" 
d="M1185 517l-2 -43h-840q10 -130 93.5 -211t211.5 -81q97 0 170 47t106 129h243q-33 -121 -115.5 -211t-201.5 -134q-103 -57 -155 -112t-52 -131q0 -62 33 -98t92 -36q54 0 102.5 27.5t79.5 75.5l77 -110q-119 -123 -297 -115q-113 7 -178.5 70t-65.5 163q0 130 134 233
q-227 10 -375 160t-148 372q0 151 71.5 273t197 190.5t279.5 68.5q232 0 384 -148.5t156 -378.5zM648 840q-101 0 -175 -51.5t-109 -140.5h555q-34 90 -103.5 141t-167.5 51z" />
    <glyph glyph-name="Ecaron" unicode="&#x11a;" horiz-adv-x="1192" 
d="M714 1667h-184l-225 381h166l151 -236l154 236h164zM1062 1308h-629v-425h545v-230h-545v-425h629v-228h-880v1536h880v-228z" />
    <glyph glyph-name="ecaron" unicode="&#x11b;" horiz-adv-x="1274" 
d="M748 1160h-185l-225 381h166l151 -235l154 235h164zM1185 517l-2 -43h-840q10 -130 93.5 -211t211.5 -81q97 0 170 47t106 129h243q-45 -170 -184.5 -274t-334.5 -104q-238 0 -394.5 151t-156.5 381q0 151 71.5 273t197 190.5t279.5 68.5q232 0 384 -148.5t156 -378.5z
M648 840q-101 0 -175 -51.5t-109 -140.5h555q-34 90 -103.5 141t-167.5 51z" />
    <glyph glyph-name="Gbreve" unicode="&#x11e;" horiz-adv-x="1804" 
d="M901 1661q-159 0 -256 88t-97 248h141q0 -79 60.5 -137t151.5 -58q93 0 154 58t61 137h141q0 -160 -97.5 -248t-258.5 -88zM901 829h791v-61q0 -160 -62.5 -306t-168 -251.5t-251.5 -168t-306 -62.5q-161 0 -307.5 62.5t-252 168t-167.5 251.5t-62 306t62 306
t167.5 251.5t252 168t307.5 62.5q220 0 405 -112.5t286 -299.5l-215 -115q-70 128 -196.5 203.5t-279.5 75.5q-229 0 -386 -156t-157 -384t157 -384t386 -156q187 0 330 109t189 283h-522v209z" />
    <glyph glyph-name="gbreve" unicode="&#x11f;" horiz-adv-x="1374" 
d="M643 1149q-159 0 -256.5 88t-97.5 248h141q0 -79 61 -137t152 -58q93 0 154 58t61 137h140q0 -160 -97 -248t-258 -88zM960 1024h246v-1078q0 -250 -157 -408t-406 -158q-185 0 -325 93.5t-198 252.5l223 92q31 -97 112.5 -156t187.5 -59q138 0 229 95t91 241v176
q-145 -135 -346 -135q-107 0 -203 41.5t-165.5 112.5t-110.5 170t-41 208t41 208t110.5 170t165.5 112.5t203 41.5q197 0 343 -133v113zM655 205q129 0 219.5 89t90.5 218t-90.5 218t-219.5 89t-218 -89t-89 -218t89 -218t218 -89z" />
    <glyph glyph-name="Gdotaccent" unicode="&#x120;" horiz-adv-x="1804" 
d="M904 1677q-58 0 -101 42.5t-43 100.5q0 61 43 103.5t101 42.5q60 0 103 -42.5t43 -103.5q0 -58 -43.5 -100.5t-102.5 -42.5zM901 829h791v-61q0 -160 -62.5 -306t-168 -251.5t-251.5 -168t-306 -62.5q-161 0 -307.5 62.5t-252 168t-167.5 251.5t-62 306t62 306
t167.5 251.5t252 168t307.5 62.5q220 0 405 -112.5t286 -299.5l-215 -115q-70 128 -196.5 203.5t-279.5 75.5q-229 0 -386 -156t-157 -384t157 -384t386 -156q187 0 330 109t189 283h-522v209z" />
    <glyph glyph-name="gdotaccent" unicode="&#x121;" horiz-adv-x="1374" 
d="M645 1165q-58 0 -100.5 42.5t-42.5 100.5q0 61 42.5 103.5t100.5 42.5q60 0 103 -42.5t43 -103.5q0 -58 -43.5 -100.5t-102.5 -42.5zM960 1024h246v-1078q0 -250 -157 -408t-406 -158q-185 0 -325 93.5t-198 252.5l223 92q31 -97 112.5 -156t187.5 -59q138 0 229 95
t91 241v176q-145 -135 -346 -135q-107 0 -203 41.5t-165.5 112.5t-110.5 170t-41 208t41 208t110.5 170t165.5 112.5t203 41.5q197 0 343 -133v113zM655 205q129 0 219.5 89t90.5 218t-90.5 218t-219.5 89t-218 -89t-89 -218t89 -218t218 -89z" />
    <glyph glyph-name="Gcommaaccent" unicode="&#x122;" horiz-adv-x="1804" 
d="M901 829h791v-61q0 -160 -62.5 -306t-168 -251.5t-251.5 -168t-306 -62.5q-161 0 -307.5 62.5t-252 168t-167.5 251.5t-62 306t62 306t167.5 251.5t252 168t307.5 62.5q220 0 405 -112.5t286 -299.5l-215 -115q-70 128 -196.5 203.5t-279.5 75.5q-229 0 -386 -156
t-157 -384t157 -384t386 -156q187 0 330 109t189 283h-522v209zM632 -497l149 374h243l-256 -374h-136z" />
    <glyph glyph-name="gcommaaccent" unicode="&#x123;" horiz-adv-x="1374" 
d="M929 1539l-148 -374h-243l256 374h135zM960 1024h246v-1078q0 -250 -157 -408t-406 -158q-185 0 -325 93.5t-198 252.5l223 92q31 -97 112.5 -156t187.5 -59q138 0 229 95t91 241v176q-145 -135 -346 -135q-107 0 -203 41.5t-165.5 112.5t-110.5 170t-41 208t41 208
t110.5 170t165.5 112.5t203 41.5q197 0 343 -133v113zM655 205q129 0 219.5 89t90.5 218t-90.5 218t-219.5 89t-218 -89t-89 -218t89 -218t218 -89z" />
    <glyph glyph-name="Hbar" unicode="&#x126;" horiz-adv-x="1574" 
d="M1533 1265v-123h-128v-1142h-250v653h-735v-653h-251v1142h-131v123h131v271h251v-271h735v271h250v-271h128zM1155 886v256h-735v-256h735z" />
    <glyph glyph-name="hbar" unicode="&#x127;" horiz-adv-x="1195" 
d="M663 1044q160 0 270.5 -113.5t110.5 -280.5v-650h-243v627q0 81 -55.5 136.5t-136.5 55.5q-82 0 -139.5 -59.5t-57.5 -142.5v-617h-243v1308h-136v169h136v346h243v-346h274v-169h-274v-358q110 94 251 94z" />
    <glyph glyph-name="Imacron" unicode="&#x12a;" horiz-adv-x="611" 
d="M13 1723v159h583v-159h-583zM182 0v1536h251v-1536h-251z" />
    <glyph glyph-name="imacron" unicode="&#x12b;" horiz-adv-x="606" 
d="M13 1211v159h583v-159h-583zM182 0v1024h243v-1024h-243z" />
    <glyph glyph-name="Iogonek" unicode="&#x12e;" horiz-adv-x="611" 
d="M476 -305l77 -110q-119 -123 -297 -115q-113 7 -178 70t-65 163q0 93 61 164t172 133h-64v1536h251v-1536q-66 -34 -105.5 -58.5t-80.5 -58.5t-59.5 -72.5t-18.5 -84.5q0 -62 33 -97.5t92 -35.5q54 0 102.5 27t79.5 75z" />
    <glyph glyph-name="iogonek" unicode="&#x12f;" horiz-adv-x="606" 
d="M305 1165q-58 0 -101 42.5t-43 100.5q0 61 43 103.5t101 42.5q60 0 103 -42.5t43 -103.5q0 -58 -43.5 -100.5t-102.5 -42.5zM445 -305l77 -110q-119 -123 -297 -115q-113 7 -178 70t-65 163q0 93 61 164t172 133h-33v1024h243v-1024h-23q-66 -34 -105.5 -58.5
t-80.5 -58.5t-59.5 -72.5t-18.5 -84.5q0 -62 33.5 -97.5t92.5 -35.5q54 0 102 27t79 75z" />
    <glyph glyph-name="Idotaccent" unicode="&#x130;" horiz-adv-x="611" 
d="M305 1677q-58 0 -101 42.5t-43 100.5q0 61 43 103.5t101 42.5q60 0 103 -42.5t43 -103.5q0 -58 -43.5 -100.5t-102.5 -42.5zM182 0v1536h251v-1536h-251z" />
    <glyph glyph-name="dotlessi" unicode="&#x131;" horiz-adv-x="606" 
d="M182 0v1024h243v-1024h-243z" />
    <glyph glyph-name="Kcommaaccent" unicode="&#x136;" horiz-adv-x="1410" 
d="M714 840l732 -840h-340l-604 724h-82v-724h-251v1536h251v-586h87l558 586h330zM443 -497l148 374h244l-256 -374h-136z" />
    <glyph glyph-name="kcommaaccent" unicode="&#x137;" horiz-adv-x="1141" 
d="M678 563l502 -563h-320l-435 525v-525h-241v1823h241v-1209l412 410h302zM335 -497l149 374h243l-256 -374h-136z" />
    <glyph glyph-name="Lacute" unicode="&#x139;" horiz-adv-x="972" 
d="M673 2048l-315 -381h-158l225 381h248zM420 233h540v-233h-791v1536h251v-1303z" />
    <glyph glyph-name="lacute" unicode="&#x13a;" horiz-adv-x="581" 
d="M195 1953l225 382h248l-315 -382h-158zM169 0v1823h243v-1823h-243z" />
    <glyph glyph-name="Lcommaaccent" unicode="&#x13b;" horiz-adv-x="972" 
d="M420 233h540v-233h-791v1536h251v-1303zM294 -497l149 374h243l-256 -374h-136z" />
    <glyph glyph-name="lcommaaccent" unicode="&#x13c;" horiz-adv-x="581" 
d="M169 0v1823h243v-1823h-243zM154 -497h-136l148 374h244z" />
    <glyph glyph-name="Lcaron" unicode="&#x13d;" horiz-adv-x="1018" 
d="M420 1536v-1303h540v-233h-791v1536h251zM1016 1536l-256 -617h-143l171 617h228z" />
    <glyph glyph-name="lcaron" unicode="&#x13e;" horiz-adv-x="888" 
d="M169 0v1823h243v-1823h-243zM666 1206h-144l172 617h228z" />
    <glyph glyph-name="ldot" unicode="&#x140;" horiz-adv-x="581" 
d="M169 0v1823h243v-1823h-243zM602 635q-43 0 -74 30t-31 75q0 42 31.5 73.5t73.5 31.5q41 0 73 -31.5t32 -73.5q0 -45 -31.5 -75t-73.5 -30z" />
    <glyph glyph-name="Lslash" unicode="&#x141;" horiz-adv-x="972" 
d="M420 233h540v-233h-791v527l-138 -146l-110 100l248 261v794h251v-527l136 143l112 -97l-248 -261v-561z" />
    <glyph glyph-name="lslash" unicode="&#x142;" horiz-adv-x="581" 
d="M658 1183l-246 -259v-924h-243v671l-141 -149l-107 98l248 261v942h243v-686l133 140z" />
    <glyph glyph-name="Nacute" unicode="&#x143;" horiz-adv-x="1689" 
d="M1224 2048l-315 -381h-159l225 381h249zM1272 1536h249v-1536h-251l-850 1142v-1142h-251v1536h251l852 -1139v1139z" />
    <glyph glyph-name="nacute" unicode="&#x144;" horiz-adv-x="1200" 
d="M991 1536l-315 -381h-159l225 381h249zM676 1044q152 0 263 -114.5t111 -279.5v-650h-241v625q0 83 -56 138.5t-141 55.5t-142.5 -56t-57.5 -138v-625h-243v1024h243v-97q109 117 264 117z" />
    <glyph glyph-name="Ncommaaccent" unicode="&#x145;" horiz-adv-x="1689" 
d="M1272 1536h249v-1536h-251l-850 1142v-1142h-251v1536h251l852 -1139v1139zM573 -497l149 374h243l-256 -374h-136z" />
    <glyph glyph-name="ncommaaccent" unicode="&#x146;" horiz-adv-x="1200" 
d="M676 1044q152 0 263 -114.5t111 -279.5v-650h-241v625q0 83 -56 138.5t-141 55.5t-142.5 -56t-57.5 -138v-625h-243v1024h243v-97q109 117 264 117zM340 -497l149 374h243l-256 -374h-136z" />
    <glyph glyph-name="Ncaron" unicode="&#x147;" horiz-adv-x="1689" 
d="M937 1667h-184l-226 381h167l151 -236l153 236h164zM1272 1536h249v-1536h-251l-850 1142v-1142h-251v1536h251l852 -1139v1139z" />
    <glyph glyph-name="ncaron" unicode="&#x148;" horiz-adv-x="1200" 
d="M704 1155h-184l-226 381h167l151 -236l153 236h164zM676 1044q152 0 263 -114.5t111 -279.5v-650h-241v625q0 83 -56 138.5t-141 55.5t-142.5 -56t-57.5 -138v-625h-243v1024h243v-97q109 117 264 117z" />
    <glyph glyph-name="Eng" unicode="&#x14a;" horiz-adv-x="1689" 
d="M1272 1536h249v-1536v-197q0 -186 -100 -263t-292 -75v184q34 0 55.5 5t43 21.5t32 51.5t10.5 91v182l-850 1142v-1142h-251v1536h251l852 -1139v1139z" />
    <glyph glyph-name="eng" unicode="&#x14b;" horiz-adv-x="1200" 
d="M676 1044q152 0 263 -114.5t111 -279.5v-650v-223q0 -96 -25.5 -162.5t-76 -105t-118.5 -55t-162 -15.5v151q34 0 55.5 5t43 21.5t32 51.5t10.5 91v866q0 82 -57 138t-140 56q-85 0 -142.5 -56t-57.5 -138v-625h-243v1024h243v-97q109 117 264 117z" />
    <glyph glyph-name="Omacron" unicode="&#x14c;" horiz-adv-x="1797" 
d="M607 1723v159h583v-159h-583zM899 -20q-160 0 -306 62.5t-252 168t-168.5 251.5t-62.5 306t62.5 306t168.5 251.5t252 168t306 62.5t306 -62.5t251.5 -168t168 -251.5t62.5 -306t-62.5 -306t-168 -251.5t-251.5 -168t-306 -62.5zM899 228q150 0 274 71t195 195t71 274
t-71 274t-195 195t-274 71q-149 0 -273 -71t-196 -195t-72 -274t72 -274t196 -195t273 -71z" />
    <glyph glyph-name="omacron" unicode="&#x14d;" horiz-adv-x="1295" 
d="M356 1211v159h584v-159h-584zM648 -20q-156 0 -282.5 70t-197.5 192t-71 270t71 270t197.5 192t282.5 70t282 -70t197 -192t71 -270t-71 -270t-197 -192t-282 -70zM648 205q129 0 218 89t89 218t-89 218t-218 89q-130 0 -219 -89t-89 -218t89 -218t219 -89z" />
    <glyph glyph-name="Ohungarumlaut" unicode="&#x150;" horiz-adv-x="1797" 
d="M622 1667l223 381h246l-313 -381h-156zM993 1667l223 381h246l-313 -381h-156zM899 -20q-160 0 -306 62.5t-252 168t-168.5 251.5t-62.5 306t62.5 306t168.5 251.5t252 168t306 62.5t306 -62.5t251.5 -168t168 -251.5t62.5 -306t-62.5 -306t-168 -251.5t-251.5 -168
t-306 -62.5zM899 228q150 0 274 71t195 195t71 274t-71 274t-195 195t-274 71q-149 0 -273 -71t-196 -195t-72 -274t72 -274t196 -195t273 -71z" />
    <glyph glyph-name="ohungarumlaut" unicode="&#x151;" horiz-adv-x="1295" 
d="M371 1155l223 381h246l-313 -381h-156zM742 1155l223 381h246l-312 -381h-157zM648 -20q-156 0 -282.5 70t-197.5 192t-71 270t71 270t197.5 192t282.5 70t282 -70t197 -192t71 -270t-71 -270t-197 -192t-282 -70zM648 205q129 0 218 89t89 218t-89 218t-218 89
q-130 0 -219 -89t-89 -218t89 -218t219 -89z" />
    <glyph glyph-name="OE" unicode="&#x152;" horiz-adv-x="2129" 
d="M1999 1311h-622v-430h535v-226h-535v-430h622v-225h-839v26q-122 -46 -261 -46q-160 0 -306 62.5t-252 168t-168.5 251.5t-62.5 306t62.5 306t168.5 251.5t252 168t306 62.5q139 0 261 -46v26h839v-225zM899 220q131 0 261 69v958q-130 69 -261 69q-150 0 -276 -73
t-199 -199t-73 -276t73 -276t199 -199t276 -73z" />
    <glyph glyph-name="oe" unicode="&#x153;" horiz-adv-x="2140" 
d="M2048 517l-3 -43h-839q10 -130 93 -211t211 -81q97 0 170.5 47t106.5 129h243q-45 -170 -185 -274t-335 -104q-134 0 -246 51t-186 141q-77 -90 -187.5 -141t-242.5 -51q-156 0 -282.5 70t-197.5 192t-71 270t71 270t197.5 192t282.5 70q132 0 244 -51t186 -141
q77 90 187.5 141t242.5 51q232 0 384 -148.5t156 -378.5zM1510 840q-101 0 -175 -51.5t-109 -140.5h556q-34 90 -104 141t-168 51zM648 205q129 0 218 89t89 218t-89 218t-218 89q-130 0 -219 -89t-89 -218t89 -218t219 -89z" />
    <glyph glyph-name="Racute" unicode="&#x154;" horiz-adv-x="1326" 
d="M1047 2048l-315 -381h-159l226 381h248zM881 668l440 -668h-282l-407 645h-212v-645h-251v1536h602q122 0 223.5 -60t160 -163.5t58.5 -227.5q0 -154 -93.5 -270t-238.5 -147zM420 863h320q99 0 163.5 61.5t64.5 158.5t-64.5 158.5t-163.5 61.5h-320v-440z" />
    <glyph glyph-name="racute" unicode="&#x155;" horiz-adv-x="811" 
d="M835 1536l-315 -381h-159l225 381h249zM412 883q55 76 136 118.5t179 42.5q46 0 82 -7v-228q-52 10 -87 10q-134 0 -222 -83t-88 -216v-520h-243v1024h243v-141z" />
    <glyph glyph-name="Rcommaaccent" unicode="&#x156;" horiz-adv-x="1326" 
d="M881 668l440 -668h-282l-407 645h-212v-645h-251v1536h602q122 0 223.5 -60t160 -163.5t58.5 -227.5q0 -154 -93.5 -270t-238.5 -147zM420 863h320q99 0 163.5 61.5t64.5 158.5t-64.5 158.5t-163.5 61.5h-320v-440zM397 -497l148 374h243l-256 -374h-135z" />
    <glyph glyph-name="rcommaaccent" unicode="&#x157;" horiz-adv-x="811" 
d="M727 1044q46 0 82 -7v-228q-52 10 -87 10q-134 0 -222 -83t-88 -216v-520h-243v1024h243v-141q55 76 136 118.5t179 42.5zM18 -497l148 374h244l-256 -374h-136z" />
    <glyph glyph-name="Rcaron" unicode="&#x158;" horiz-adv-x="1326" 
d="M760 1667h-184l-225 381h166l151 -236l154 236h164zM881 668l440 -668h-282l-407 645h-212v-645h-251v1536h602q122 0 223.5 -60t160 -163.5t58.5 -227.5q0 -154 -93.5 -270t-238.5 -147zM420 863h320q99 0 163.5 61.5t64.5 158.5t-64.5 158.5t-163.5 61.5h-320v-440z
" />
    <glyph glyph-name="rcaron" unicode="&#x159;" horiz-adv-x="811" 
d="M548 1155h-184l-226 381h167l151 -236l153 236h164zM727 1044q46 0 82 -7v-228q-52 10 -87 10q-134 0 -222 -83t-88 -216v-520h-243v1024h243v-141q55 76 136 118.5t179 42.5z" />
    <glyph glyph-name="Sacute" unicode="&#x15a;" horiz-adv-x="1162" 
d="M489 1667l225 381h249l-315 -381h-159zM596 -20q-181 0 -326 90t-214 237l215 131q41 -100 127 -159t201 -59q109 0 178.5 54t69.5 146q0 52 -25 93t-67 69.5t-96.5 52.5t-114.5 47t-120.5 48.5t-115 61t-96.5 80t-67 110.5t-25 147q0 100 37.5 182.5t101.5 135t146.5 81
t173.5 28.5q133 0 249 -55.5t191 -148.5l-177 -162q-106 134 -263 134q-90 0 -149 -45.5t-59 -131.5q0 -50 25 -89.5t67 -67t96.5 -51t114.5 -46.5t120.5 -49t115 -63.5t96.5 -85t67 -118t25 -157.5q0 -134 -68.5 -235.5t-181.5 -153t-252 -51.5z" />
    <glyph glyph-name="sacute" unicode="&#x15b;" horiz-adv-x="870" 
d="M369 1155l225 381h248l-315 -381h-158zM458 -20q-131 0 -243 65.5t-148 169.5l197 90q22 -56 74.5 -86t112.5 -30q56 0 92 26.5t36 73.5q0 42 -34.5 68.5t-122.5 62.5q-67 24 -114 48t-94 61t-71.5 89t-24.5 117q0 134 95.5 221.5t239.5 87.5q101 0 191.5 -44.5
t131.5 -111.5l-154 -125q-21 35 -62.5 56t-91.5 21q-52 0 -81 -24t-29 -68t31 -67.5t118 -58.5q51 -21 85.5 -37.5t79.5 -46t71.5 -61t46 -79.5t19.5 -104q0 -138 -98.5 -226t-252.5 -88z" />
    <glyph glyph-name="Scedilla" unicode="&#x15e;" horiz-adv-x="1162" 
d="M1098 420q0 -192 -131 -310t-332 -130l-56 -108q102 19 172.5 -34.5t70.5 -149.5q0 -92 -63 -156t-155 -64q-75 0 -144 42t-94 103l115 41q17 -27 53.5 -45.5t69.5 -18.5q40 0 67.5 28.5t27.5 69.5q0 62 -52 82t-127 -13l-98 59l93 169q-155 19 -277 106t-182 216
l215 131q41 -100 127 -159t201 -59q109 0 178.5 54t69.5 146q0 52 -25 93t-67 69.5t-96.5 52.5t-114.5 47t-120.5 48.5t-115 61t-96.5 80t-67 110.5t-25 147q0 100 37.5 182.5t101.5 135t146.5 81t173.5 28.5q133 0 249 -55.5t191 -148.5l-177 -162q-106 134 -263 134
q-90 0 -149 -45.5t-59 -131.5q0 -50 25 -89.5t67 -67t96.5 -51t114.5 -46.5t120.5 -49t115 -63.5t96.5 -85t67 -118t25 -157.5z" />
    <glyph glyph-name="scedilla" unicode="&#x15f;" horiz-adv-x="870" 
d="M809 294q0 -126 -82.5 -211.5t-217.5 -100.5l-56 -110q102 19 172.5 -34.5t70.5 -149.5q0 -93 -62.5 -156.5t-154.5 -63.5q-75 0 -144 42t-94 103l115 41q17 -27 53.5 -45.5t69.5 -18.5q40 0 67 28.5t27 69.5q0 62 -52 82t-127 -13l-97 59l92 169q-112 15 -202 77.5
t-120 152.5l197 90q22 -56 74.5 -86t112.5 -30q56 0 92 26.5t36 73.5q0 42 -34.5 68.5t-122.5 62.5q-67 24 -114 48t-94 61t-71.5 89t-24.5 117q0 134 95.5 221.5t239.5 87.5q101 0 191.5 -44.5t131.5 -111.5l-154 -125q-21 35 -62.5 56t-91.5 21q-52 0 -81 -24t-29 -68
t31 -67.5t118 -58.5q51 -21 85.5 -37.5t79.5 -46t71.5 -61t46 -79.5t19.5 -104z" />
    <glyph glyph-name="Scaron" unicode="&#x160;" horiz-adv-x="1162" 
d="M492 1667l-226 381h167l151 -236l153 236h164l-225 -381h-184zM596 -20q-181 0 -326 90t-214 237l215 131q41 -100 127 -159t201 -59q109 0 178.5 54t69.5 146q0 52 -25 93t-67 69.5t-96.5 52.5t-114.5 47t-120.5 48.5t-115 61t-96.5 80t-67 110.5t-25 147
q0 100 37.5 182.5t101.5 135t146.5 81t173.5 28.5q133 0 249 -55.5t191 -148.5l-177 -162q-106 134 -263 134q-90 0 -149 -45.5t-59 -131.5q0 -50 25 -89.5t67 -67t96.5 -51t114.5 -46.5t120.5 -49t115 -63.5t96.5 -85t67 -118t25 -157.5q0 -134 -68.5 -235.5t-181.5 -153
t-252 -51.5z" />
    <glyph glyph-name="scaron" unicode="&#x161;" horiz-adv-x="870" 
d="M371 1155l-225 381h166l151 -236l154 236h164l-225 -381h-185zM458 -20q-131 0 -243 65.5t-148 169.5l197 90q22 -56 74.5 -86t112.5 -30q56 0 92 26.5t36 73.5q0 42 -34.5 68.5t-122.5 62.5q-67 24 -114 48t-94 61t-71.5 89t-24.5 117q0 134 95.5 221.5t239.5 87.5
q101 0 191.5 -44.5t131.5 -111.5l-154 -125q-21 35 -62.5 56t-91.5 21q-52 0 -81 -24t-29 -68t31 -67.5t118 -58.5q51 -21 85.5 -37.5t79.5 -46t71.5 -61t46 -79.5t19.5 -104q0 -138 -98.5 -226t-252.5 -88z" />
    <glyph glyph-name="uni0162" unicode="&#x162;" horiz-adv-x="1072" 
d="M660 0h-64l-66 -128q102 19 172.5 -34.5t70.5 -149.5q0 -93 -62.5 -156.5t-154.5 -63.5q-75 0 -144.5 42t-94.5 103l116 41q17 -27 53.5 -45.5t69.5 -18.5q40 0 67 28.5t27 69.5q0 62 -52 82t-127 -13l-97 59l100 184h-62v1303h-407v233h1063v-233h-408v-1303z" />
    <glyph glyph-name="uni0163" unicode="&#x163;" horiz-adv-x="778" 
d="M553 -128q102 19 172.5 -34.5t70.5 -149.5q0 -93 -62.5 -156.5t-154.5 -63.5q-75 0 -144.5 42t-94.5 103l116 41q17 -27 53.5 -45.5t69.5 -18.5q40 0 67 28.5t27 69.5q0 62 -52 82t-127 -13l-97 59l92 171q-119 24 -199 116t-80 214v502h-169v205h169v420h243v-420h259
v-205h-259v-473q0 -66 38.5 -106t97.5 -40h118v-187q-24 -17 -95 -31z" />
    <glyph glyph-name="Tcaron" unicode="&#x164;" horiz-adv-x="1072" 
d="M627 1667h-184l-225 381h166l151 -236l154 236h163zM1068 1536v-233h-408v-1303h-248v1303h-407v233h1063z" />
    <glyph glyph-name="tcaron" unicode="&#x165;" horiz-adv-x="970" 
d="M783 1720h228l-256 -617h-143zM453 1444v-420h259v-205h-259v-473q0 -66 38.5 -106t97.5 -40h118v-187q-20 -14 -62.5 -23.5t-86.5 -9.5q-142 0 -245 98.5t-103 238.5v502h-169v205h169v420h243z" />
    <glyph glyph-name="Tbar" unicode="&#x166;" horiz-adv-x="1072" 
d="M1068 1303h-408v-451h200v-168h-200v-684h-248v684h-205v168h205v451h-407v233h1063v-233z" />
    <glyph glyph-name="tbar" unicode="&#x167;" horiz-adv-x="778" 
d="M712 819h-259v-223h246v-168h-246v-82q0 -66 38.5 -106t97.5 -40h118v-187q-20 -14 -62.5 -23.5t-86.5 -9.5q-142 0 -245 98.5t-103 238.5v111h-164v168h164v223h-169v205h169v420h243v-420h259v-205z" />
    <glyph glyph-name="Umacron" unicode="&#x16a;" horiz-adv-x="1538" 
d="M476 1723v159h584v-159h-584zM768 -20q-172 0 -311 67.5t-217.5 186t-78.5 265.5v1037h251v-993q0 -142 101.5 -236.5t254.5 -94.5q154 0 256 94.5t102 236.5v993h251v-1037q0 -146 -79 -265t-218.5 -186.5t-311.5 -67.5z" />
    <glyph glyph-name="umacron" unicode="&#x16b;" horiz-adv-x="1141" 
d="M287 1211v159h583v-159h-583zM571 -20q-201 0 -315.5 107t-114.5 292v645h240v-614q0 -93 53 -149t137 -56q83 0 136 56t53 149v614h241v-645q0 -185 -114.5 -292t-315.5 -107z" />
    <glyph glyph-name="Uring" unicode="&#x16e;" horiz-adv-x="1538" 
d="M768 1626q-96 0 -164.5 68t-68.5 162q0 96 68.5 163t164.5 67q94 0 161 -67t67 -163q0 -94 -67 -162t-161 -68zM768 1736q51 0 85.5 34.5t34.5 85.5t-35 87t-85 36t-84 -36t-34 -87q0 -52 34 -86t84 -34zM768 -20q-172 0 -311 67.5t-217.5 186t-78.5 265.5v1037h251v-993
q0 -142 101.5 -236.5t254.5 -94.5q154 0 256 94.5t102 236.5v993h251v-1037q0 -146 -79 -265t-218.5 -186.5t-311.5 -67.5z" />
    <glyph glyph-name="uring" unicode="&#x16f;" horiz-adv-x="1141" 
d="M579 1114q-96 0 -164.5 68t-68.5 162q0 96 68.5 163t164.5 67q94 0 160.5 -67t66.5 -163q0 -94 -67 -162t-160 -68zM579 1224q51 0 85.5 34.5t34.5 85.5t-35 87t-85 36t-84 -36t-34 -87q0 -52 34 -86t84 -34zM571 -20q-201 0 -315.5 107t-114.5 292v645h240v-614
q0 -93 53 -149t137 -56q83 0 136 56t53 149v614h241v-645q0 -185 -114.5 -292t-315.5 -107z" />
    <glyph glyph-name="Uhungarumlaut" unicode="&#x170;" horiz-adv-x="1538" 
d="M492 1667l222 381h246l-312 -381h-156zM863 1667l222 381h246l-312 -381h-156zM768 -20q-172 0 -311 67.5t-217.5 186t-78.5 265.5v1037h251v-993q0 -142 101.5 -236.5t254.5 -94.5q154 0 256 94.5t102 236.5v993h251v-1037q0 -146 -79 -265t-218.5 -186.5t-311.5 -67.5z
" />
    <glyph glyph-name="uhungarumlaut" unicode="&#x171;" horiz-adv-x="1141" 
d="M302 1155l223 381h246l-313 -381h-156zM673 1155l223 381h246l-313 -381h-156zM571 -20q-201 0 -315.5 107t-114.5 292v645h240v-614q0 -93 53 -149t137 -56q83 0 136 56t53 149v614h241v-645q0 -185 -114.5 -292t-315.5 -107z" />
    <glyph glyph-name="Uogonek" unicode="&#x172;" horiz-adv-x="1538" 
d="M1126 1536h251v-1037q0 -161 -95 -287t-255 -186q-102 -57 -153.5 -112.5t-51.5 -131.5q0 -62 33 -97.5t92 -35.5q54 0 102.5 27.5t79.5 75.5l77 -110q-120 -124 -297 -116q-113 7 -178 70t-65 163q0 125 117 221h-15q-172 0 -311 67.5t-217.5 186t-78.5 265.5v1037h251
v-993q0 -142 101.5 -236.5t254.5 -94.5q154 0 256 94.5t102 236.5v993z" />
    <glyph glyph-name="uogonek" unicode="&#x173;" horiz-adv-x="1141" 
d="M750 8q-77 -49 -116.5 -99t-39.5 -116q0 -62 33 -97.5t92 -35.5q54 0 102.5 27t79.5 75l77 -110q-119 -123 -297 -115q-113 7 -178 70t-65 163q0 118 105 210q-188 7 -295 113.5t-107 285.5v645h240v-614q0 -93 53 -149t137 -56q83 0 136 56t53 149v614h241v-645
q0 -137 -65.5 -233.5t-185.5 -137.5z" />
    <glyph glyph-name="Wcircumflex" unicode="&#x174;" horiz-adv-x="2081" 
d="M1044 1905l-151 -238h-166l225 381h185l225 -381h-164zM1848 1536h261l-448 -1536h-281l-341 1229l-335 -1229h-279l-453 1536h266l333 -1157l328 1157h225h59l330 -1162z" />
    <glyph glyph-name="wcircumflex" unicode="&#x175;" horiz-adv-x="1697" 
d="M850 1393l-151 -238h-167l226 381h184l225 -381h-163zM1421 1024h269l-349 -1024h-261l-230 694l-233 -694h-259l-353 1024h274l220 -755l249 755h204l249 -760z" />
    <glyph glyph-name="Ycircumflex" unicode="&#x176;" horiz-adv-x="1292" 
d="M648 1905l-151 -238h-167l226 381h184l225 -381h-164zM1308 1536l-535 -809v-727h-251v722l-537 814h294l369 -579l371 579h289z" />
    <glyph glyph-name="ycircumflex" unicode="&#x177;" horiz-adv-x="1103" 
d="M550 1393l-151 -238h-166l225 381h185l225 -381h-164zM837 1024h261l-658 -1638h-256l244 596l-423 1042h259l292 -758z" />
    <glyph glyph-name="Ydieresis" unicode="&#x178;" horiz-adv-x="1292" 
d="M445 1720q-54 0 -93.5 39.5t-39.5 93.5q0 55 39.5 94.5t93.5 39.5q56 0 96 -39.5t40 -94.5q0 -54 -40.5 -93.5t-95.5 -39.5zM847 1720q-54 0 -93.5 39.5t-39.5 93.5q0 55 39.5 94.5t93.5 39.5q55 0 94 -39t39 -95q0 -54 -39 -93.5t-94 -39.5zM1308 1536l-535 -809v-727
h-251v722l-537 814h294l369 -579l371 579h289z" />
    <glyph glyph-name="Zacute" unicode="&#x179;" horiz-adv-x="1331" 
d="M1060 2048l-315 -381h-159l226 381h248zM492 233h755v-233h-1170l742 1303h-678v233h1090z" />
    <glyph glyph-name="zacute" unicode="&#x17a;" horiz-adv-x="1026" 
d="M919 1536l-315 -381h-159l226 381h248zM968 1024l-510 -809h499v-215h-888l507 809h-461v215h853z" />
    <glyph glyph-name="Zdotaccent" unicode="&#x17b;" horiz-adv-x="1331" 
d="M681 1677q-58 0 -100.5 42.5t-42.5 100.5q0 61 42.5 103.5t100.5 42.5q60 0 103 -42.5t43 -103.5q0 -58 -43.5 -100.5t-102.5 -42.5zM492 233h755v-233h-1170l742 1303h-678v233h1090z" />
    <glyph glyph-name="zdotaccent" unicode="&#x17c;" horiz-adv-x="1026" 
d="M540 1165q-58 0 -100.5 42.5t-42.5 100.5q0 61 42.5 103.5t100.5 42.5q60 0 103 -42.5t43 -103.5q0 -58 -43.5 -100.5t-102.5 -42.5zM968 1024l-510 -809h499v-215h-888l507 809h-461v215h853z" />
    <glyph glyph-name="Zcaron" unicode="&#x17d;" horiz-adv-x="1331" 
d="M773 1667h-184l-225 381h166l151 -236l154 236h163zM492 233h755v-233h-1170l742 1303h-678v233h1090z" />
    <glyph glyph-name="zcaron" unicode="&#x17e;" horiz-adv-x="1026" 
d="M632 1155h-184l-225 381h166l151 -236l154 236h164zM968 1024l-510 -809h499v-215h-888l507 809h-461v215h853z" />
    <glyph glyph-name="florin" unicode="&#x192;" horiz-adv-x="983" 
d="M796 1382q-78 0 -132 -50.5t-68 -135.5l-28 -172h282l-28 -184h-282l-215 -1352h-215l213 1352h-172l28 184h174l31 202q23 140 136.5 235t252.5 95q44 0 86 -10.5t60 -24.5l-20 -172q-43 33 -103 33z" />
    <glyph glyph-name="uni01CD" unicode="&#x1cd;" horiz-adv-x="1354" 
d="M771 1667h-185l-225 381h166l151 -236l154 236h164zM1101 0l-110 325h-627l-111 -325h-271l556 1536h279l555 -1536h-271zM438 545h481l-241 717z" />
    <glyph glyph-name="uni01CE" unicode="&#x1ce;" horiz-adv-x="1377" 
d="M735 1155h-185l-225 381h167l151 -236l153 236h164zM1285 200h56v-200q-35 -20 -81 -20q-92 0 -165 46.5t-112 124.5q-66 -80 -161.5 -125.5t-204.5 -45.5q-107 0 -203 41.5t-165.5 112.5t-110.5 170t-41 208t41 208t110.5 170t165.5 112.5t203 41.5q189 0 330 -128v108
h243v-709q0 -115 95 -115zM648 205q127 0 217 89.5t90 217.5t-90 217.5t-217 89.5q-129 0 -218.5 -89t-89.5 -218t89.5 -218t218.5 -89z" />
    <glyph glyph-name="uni01CF" unicode="&#x1cf;" horiz-adv-x="611" 
d="M212 1667l-225 381h167l151 -236l153 236h164l-225 -381h-185zM182 0v1536h251v-1536h-251z" />
    <glyph glyph-name="uni01D0" unicode="&#x1d0;" horiz-adv-x="606" 
d="M212 1155l-225 381h167l151 -236l153 236h164l-225 -381h-185zM182 0v1024h243v-1024h-243z" />
    <glyph glyph-name="uni01D1" unicode="&#x1d1;" horiz-adv-x="1797" 
d="M806 1667l-225 381h167l151 -236l153 236h164l-225 -381h-185zM899 -20q-160 0 -306 62.5t-252 168t-168.5 251.5t-62.5 306t62.5 306t168.5 251.5t252 168t306 62.5t306 -62.5t251.5 -168t168 -251.5t62.5 -306t-62.5 -306t-168 -251.5t-251.5 -168t-306 -62.5zM899 228
q150 0 274 71t195 195t71 274t-71 274t-195 195t-274 71q-149 0 -273 -71t-196 -195t-72 -274t72 -274t196 -195t273 -71z" />
    <glyph glyph-name="uni01D2" unicode="&#x1d2;" horiz-adv-x="1295" 
d="M556 1155l-226 381h167l151 -236l153 236h164l-225 -381h-184zM648 -20q-156 0 -282.5 70t-197.5 192t-71 270t71 270t197.5 192t282.5 70t282 -70t197 -192t71 -270t-71 -270t-197 -192t-282 -70zM648 205q129 0 218 89t89 218t-89 218t-218 89q-130 0 -219 -89
t-89 -218t89 -218t219 -89z" />
    <glyph glyph-name="uni01D3" unicode="&#x1d3;" horiz-adv-x="1538" 
d="M676 1667l-225 381h166l151 -236l154 236h163l-225 -381h-184zM768 -20q-172 0 -311 67.5t-217.5 186t-78.5 265.5v1037h251v-993q0 -142 101.5 -236.5t254.5 -94.5q154 0 256 94.5t102 236.5v993h251v-1037q0 -146 -79 -265t-218.5 -186.5t-311.5 -67.5z" />
    <glyph glyph-name="uni01D4" unicode="&#x1d4;" horiz-adv-x="1141" 
d="M486 1155l-225 381h167l151 -236l153 236h164l-225 -381h-185zM571 -20q-201 0 -315.5 107t-114.5 292v645h240v-614q0 -93 53 -149t137 -56q83 0 136 56t53 149v614h241v-645q0 -185 -114.5 -292t-315.5 -107z" />
    <glyph glyph-name="Scommaaccent" unicode="&#x218;" horiz-adv-x="1162" 
d="M596 -20q-181 0 -326 90t-214 237l215 131q41 -100 127 -159t201 -59q109 0 178.5 54t69.5 146q0 52 -25 93t-67 69.5t-96.5 52.5t-114.5 47t-120.5 48.5t-115 61t-96.5 80t-67 110.5t-25 147q0 100 37.5 182.5t101.5 135t146.5 81t173.5 28.5q133 0 249 -55.5
t191 -148.5l-177 -162q-106 134 -263 134q-90 0 -149 -45.5t-59 -131.5q0 -50 25 -89.5t67 -67t96.5 -51t114.5 -46.5t120.5 -49t115 -63.5t96.5 -85t67 -118t25 -157.5q0 -134 -68.5 -235.5t-181.5 -153t-252 -51.5zM448 -497h-136l149 374h243z" />
    <glyph glyph-name="scommaaccent" unicode="&#x219;" horiz-adv-x="870" 
d="M458 -20q-131 0 -243 65.5t-148 169.5l197 90q22 -56 74.5 -86t112.5 -30q56 0 92 26.5t36 73.5q0 42 -34.5 68.5t-122.5 62.5q-67 24 -114 48t-94 61t-71.5 89t-24.5 117q0 134 95.5 221.5t239.5 87.5q101 0 191.5 -44.5t131.5 -111.5l-154 -125q-21 35 -62.5 56
t-91.5 21q-52 0 -81 -24t-29 -68t31 -67.5t118 -58.5q51 -21 85.5 -37.5t79.5 -46t71.5 -61t46 -79.5t19.5 -104q0 -138 -98.5 -226t-252.5 -88zM323 -497h-136l148 374h244z" />
    <glyph glyph-name="uni021A" unicode="&#x21a;" horiz-adv-x="1072" 
d="M1068 1536v-233h-408v-1303h-248v1303h-407v233h1063zM264 -497l148 374h243l-256 -374h-135z" />
    <glyph glyph-name="uni021B" unicode="&#x21b;" horiz-adv-x="778" 
d="M712 819h-259v-473q0 -66 38.5 -106t97.5 -40h118v-187q-20 -14 -62.5 -23.5t-86.5 -9.5q-142 0 -245 98.5t-103 238.5v502h-169v205h169v420h243v-420h259v-205zM287 -497l148 374h243l-256 -374h-135z" />
    <glyph glyph-name="uni0237" unicode="&#x237;" horiz-adv-x="581" 
d="M67 -614q-100 0 -151 33v187h120q57 0 96.5 40t39.5 106v1272h240v-1300q0 -141 -102 -239.5t-243 -98.5z" />
    <glyph glyph-name="circumflex" unicode="&#x2c6;" horiz-adv-x="179" 
d="M279 1155h-166l225 381h184l226 -381h-164l-154 238z" />
    <glyph glyph-name="caron" unicode="&#x2c7;" horiz-adv-x="179" 
d="M338 1155l-225 381h166l151 -236l154 236h164l-226 -381h-184z" />
    <glyph glyph-name="breve" unicode="&#x2d8;" horiz-adv-x="143" 
d="M614 1149q-159 0 -256 88t-97 248h141q0 -79 60.5 -137t151.5 -58q93 0 154 58t61 137h141q0 -160 -97.5 -248t-258.5 -88z" />
    <glyph glyph-name="dotaccent" unicode="&#x2d9;" horiz-adv-x="163" 
d="M335 1165q-58 0 -100.5 42.5t-42.5 100.5q0 61 42.5 103.5t100.5 42.5q60 0 103 -42.5t43 -103.5q0 -58 -43.5 -100.5t-102.5 -42.5z" />
    <glyph glyph-name="ring" unicode="&#x2da;" horiz-adv-x="148" 
d="M215 1114q-96 0 -164.5 68t-68.5 162q0 96 68.5 163t164.5 67q94 0 161 -67t67 -163q0 -94 -67 -162t-161 -68zM215 1224q51 0 85.5 34.5t34.5 85.5t-35 87t-85 36t-84 -36t-34 -87q0 -52 34 -86t84 -34z" />
    <glyph glyph-name="ogonek" unicode="&#x2db;" horiz-adv-x="156" 
d="M371 -530q-113 7 -178 70t-65 163q0 108 80.5 187t224.5 146l115 -36q-66 -34 -105.5 -58.5t-80.5 -58.5t-59.5 -72.5t-18.5 -84.5q0 -62 33.5 -97.5t92.5 -35.5q54 0 102 27t79 75l77 -110q-119 -123 -297 -115z" />
    <glyph glyph-name="tilde" unicode="&#x2dc;" horiz-adv-x="130" 
d="M545 1234q-118 0 -197 115q-28 46 -64 46q-40 0 -61 -42t-21 -109h-156q0 133 63 217.5t170 84.5q114 0 197 -115q30 -46 67 -46q79 0 79 151h156q0 -132 -61 -217t-172 -85z" />
    <glyph glyph-name="hungarumlaut" unicode="&#x2dd;" horiz-adv-x="163" 
d="M49 1155l225 381h248l-315 -381h-158z" />
    <glyph glyph-name="gravecomb" unicode="&#x300;" 
d="M-49 1155h-158l-315 381h248z" />
    <glyph glyph-name="acutecomb" unicode="&#x301;" 
d="M-520 1155l226 381h248l-315 -381h-159z" />
    <glyph glyph-name="uni0302" unicode="&#x302;" 
d="M-581 1155h-167l226 381h184l225 -381h-163l-154 238z" />
    <glyph glyph-name="tildecomb" unicode="&#x303;" 
d="M-284 1234q-118 0 -197 115q-28 46 -64 46q-40 0 -61 -42t-21 -109h-156q0 133 63 217.5t170 84.5q114 0 197 -115q30 -46 66 -46q80 0 80 151h156q0 -132 -61 -217t-172 -85z" />
    <glyph glyph-name="uni0304" unicode="&#x304;" 
d="M-676 1211v159h584v-159h-584z" />
    <glyph glyph-name="uni0306" unicode="&#x306;" 
d="M-717 1149q-159 0 -256 88t-97 248h141q0 -79 60.5 -137t151.5 -58q93 0 154 58t61 137h141q0 -160 -97.5 -248t-258.5 -88z" />
    <glyph glyph-name="uni0307" unicode="&#x307;" 
d="M-338 1165q-58 0 -100.5 42.5t-42.5 100.5q0 61 42.5 103.5t100.5 42.5q60 0 103 -42.5t43 -103.5q0 -58 -43.5 -100.5t-102.5 -42.5z" />
    <glyph glyph-name="uni0308" unicode="&#x308;" 
d="M-668 1208q-54 0 -93.5 39.5t-39.5 93.5q0 55 39.5 94.5t93.5 39.5q56 0 96 -39.5t40 -94.5q0 -54 -40.5 -93.5t-95.5 -39.5zM-266 1208q-54 0 -93.5 39.5t-39.5 93.5q0 55 39.5 94.5t93.5 39.5q55 0 94 -39t39 -95q0 -54 -39 -93.5t-94 -39.5z" />
    <glyph glyph-name="uni030A" unicode="&#x30a;" 
d="M-210 1114q-96 0 -164.5 68t-68.5 162q0 96 68.5 163t164.5 67q94 0 161 -67t67 -163q0 -94 -67 -162t-161 -68zM-210 1224q51 0 85.5 34.5t34.5 85.5t-35 87t-85 36t-84 -36t-34 -87q0 -52 34 -86t84 -34z" />
    <glyph glyph-name="uni030B" unicode="&#x30b;" 
d="M-584 1155l223 381h246l-313 -381h-156zM-212 1155l222 381h246l-312 -381h-156z" />
    <glyph glyph-name="uni030C" unicode="&#x30c;" 
d="M-532 1155l-226 381h167l151 -236l153 236h164l-225 -381h-184z" />
    <glyph glyph-name="uni0312" unicode="&#x312;" 
d="M-154 1664h136l-148 -374h-244z" />
    <glyph glyph-name="dotbelowcomb" unicode="&#x323;" 
d="M-215 -512q-58 0 -100.5 43.5t-42.5 102.5q0 58 42.5 100.5t100.5 42.5q59 0 102.5 -42.5t43.5 -100.5q0 -59 -43.5 -102.5t-102.5 -43.5z" />
    <glyph glyph-name="uni0326" unicode="&#x326;" 
d="M-356 -233h-136l149 374h243z" />
    <glyph glyph-name="uni0327" unicode="&#x327;" 
d="M-287 -532q-75 0 -144 42t-94 103l115 41q17 -27 53.5 -45.5t69.5 -18.5q40 0 67.5 28.5t27.5 69.5q0 62 -52 82t-127 -13l-97 59l99 184h123l-66 -128q102 19 172.5 -34.5t70.5 -149.5q0 -92 -63 -156t-155 -64z" />
    <glyph glyph-name="uni0328" unicode="&#x328;" 
d="M-289 -530q-113 7 -178 70t-65 163q0 108 80 187t224 146l115 -36q-66 -34 -105.5 -58.5t-80 -58.5t-59 -72.5t-18.5 -84.5q0 -62 33 -97.5t92 -35.5q54 0 102.5 27t79.5 75l77 -110q-119 -123 -297 -115z" />
    <glyph glyph-name="uni0335" unicode="&#x335;" 
d="M-1009 440v169h653v-169h-653z" />
    <glyph glyph-name="uni0336" unicode="&#x336;" 
d="M-1564 471v123h1495v-123h-1495z" />
    <glyph glyph-name="uni0337" unicode="&#x337;" 
d="M-1011 246l609 642l108 -92l-612 -645z" />
    <glyph glyph-name="uni0338" unicode="&#x338;" 
d="M-1313 -13l1157 1659l161 -97l-1154 -1659z" />
    <glyph glyph-name="uni0394" unicode="&#x394;" horiz-adv-x="1587" 
d="M934 1536l615 -1536h-272h-1093h-148l617 1536h281zM392 218h801l-399 1036z" />
    <glyph glyph-name="uni03A9" unicode="&#x3a9;" horiz-adv-x="1812" 
d="M123 0v195h294v10q-108 97 -184.5 260t-76.5 354q0 202 94.5 366.5t267.5 260t393 95.5q136 0 255.5 -38.5t207.5 -107t152 -159t96 -196.5t32 -218q0 -185 -77.5 -352.5t-188.5 -264.5v-10h299v-195h-635v143q150 81 248 246.5t98 388.5q0 151 -55 278t-167.5 207.5
t-261.5 80.5q-223 0 -362.5 -160t-139.5 -408q0 -218 101.5 -389t244.5 -244v-143h-635z" />
    <glyph glyph-name="uni03BC" unicode="&#x3bc;" horiz-adv-x="1318" 
d="M876 1024h240v-1024h-240v131q-59 -71 -140 -111t-173 -40q-117 0 -220 66v-558h-179v1536h240v-604q0 -94 67 -161t161 -67q102 0 173 67t71 161v604z" />
    <glyph glyph-name="pi" unicode="&#x3c0;" horiz-adv-x="1454" 
d="M159 0q61 174 109.5 452.5t56.5 492.5q-190 0 -271 -29l-26 141q96 67 366 67h1009l-18 -179h-192v-607q0 -219 31 -338h-220q-39 64 -39 317v628l-415 2q-11 -226 -59.5 -517t-111.5 -430h-220z" />
    <glyph glyph-name="Wgrave" unicode="&#x1e80;" horiz-adv-x="2081" 
d="M1139 1667h-159l-314 381h248zM1848 1536h261l-448 -1536h-281l-341 1229l-335 -1229h-279l-453 1536h266l333 -1157l328 1157h225h59l330 -1162z" />
    <glyph glyph-name="wgrave" unicode="&#x1e81;" horiz-adv-x="1697" 
d="M945 1155h-159l-315 381h248zM1421 1024h269l-349 -1024h-261l-230 694l-233 -694h-259l-353 1024h274l220 -755l249 755h204l249 -760z" />
    <glyph glyph-name="Wacute" unicode="&#x1e82;" horiz-adv-x="2081" 
d="M1423 2048l-315 -381h-158l225 381h248zM1848 1536h261l-448 -1536h-281l-341 1229l-335 -1229h-279l-453 1536h266l333 -1157l328 1157h225h59l330 -1162z" />
    <glyph glyph-name="wacute" unicode="&#x1e83;" horiz-adv-x="1697" 
d="M1229 1536l-315 -381h-159l225 381h249zM1421 1024h269l-349 -1024h-261l-230 694l-233 -694h-259l-353 1024h274l220 -755l249 755h204l249 -760z" />
    <glyph glyph-name="Wdieresis" unicode="&#x1e84;" horiz-adv-x="2081" 
d="M842 1720q-54 0 -93.5 39.5t-39.5 93.5q0 55 39.5 94.5t93.5 39.5q56 0 96 -39.5t40 -94.5q0 -54 -40.5 -93.5t-95.5 -39.5zM1244 1720q-54 0 -93.5 39.5t-39.5 93.5q0 55 39.5 94.5t93.5 39.5q55 0 94 -39t39 -95q0 -54 -39 -93.5t-94 -39.5zM1848 1536h261l-448 -1536
h-281l-341 1229l-335 -1229h-279l-453 1536h266l333 -1157l328 1157h225h59l330 -1162z" />
    <glyph glyph-name="wdieresis" unicode="&#x1e85;" horiz-adv-x="1697" 
d="M648 1208q-54 0 -93.5 39.5t-39.5 93.5q0 55 39.5 94.5t93.5 39.5q56 0 95.5 -39.5t39.5 -94.5q0 -54 -40 -93.5t-95 -39.5zM1050 1208q-54 0 -94 39.5t-40 93.5q0 55 40 94.5t94 39.5q55 0 94 -39t39 -95q0 -54 -39 -93.5t-94 -39.5zM1421 1024h269l-349 -1024h-261
l-230 694l-233 -694h-259l-353 1024h274l220 -755l249 755h204l249 -760z" />
    <glyph glyph-name="Ygrave" unicode="&#x1ef2;" horiz-adv-x="1292" 
d="M742 1667h-158l-315 381h248zM1308 1536l-535 -809v-727h-251v722l-537 814h294l369 -579l371 579h289z" />
    <glyph glyph-name="ygrave" unicode="&#x1ef3;" horiz-adv-x="1103" 
d="M645 1155h-159l-314 381h248zM837 1024h261l-658 -1638h-256l244 596l-423 1042h259l292 -758z" />
    <glyph glyph-name="endash" unicode="&#x2013;" horiz-adv-x="1272" 
d="M123 435v195h1024v-195h-1024z" />
    <glyph glyph-name="emdash" unicode="&#x2014;" horiz-adv-x="2048" 
d="M0 435v195h2048v-195h-2048z" />
    <glyph glyph-name="quoteleft" unicode="&#x2018;" horiz-adv-x="483" 
d="M307 1556h144l-172 -616h-228z" />
    <glyph glyph-name="quoteright" unicode="&#x2019;" horiz-adv-x="404" 
d="M233 947h-143l171 617h228z" />
    <glyph glyph-name="quotesinglbase" unicode="&#x201a;" horiz-adv-x="501" 
d="M205 -397h-144l172 617h228z" />
    <glyph glyph-name="quotedblleft" unicode="&#x201c;" horiz-adv-x="929" 
d="M333 1556h143l-171 -616h-228zM735 1556h143l-171 -616h-228z" />
    <glyph glyph-name="quotedblright" unicode="&#x201d;" horiz-adv-x="913" 
d="M596 1001h-143l172 617h227zM187 998h-143l171 617h228z" />
    <glyph glyph-name="quotedblbase" unicode="&#x201e;" horiz-adv-x="901" 
d="M205 -397h-144l172 617h228zM602 -397h-144l172 617h228z" />
    <glyph glyph-name="dagger" unicode="&#x2020;" horiz-adv-x="1392" 
d="M1119 993v-156h-348v-1185h-159v1185h-338v156h338v379h159v-379h348z" />
    <glyph glyph-name="daggerdbl" unicode="&#x2021;" horiz-adv-x="1392" 
d="M1119 837h-348v-637h348v-156h-348v-392h-159v392h-338v156h338v637h-338v156h338v379h159v-379h348v-156z" />
    <glyph glyph-name="bullet" unicode="&#x2022;" horiz-adv-x="1236" 
d="M620 294q-159 0 -273 112t-114 272q0 158 115 274t272 116q154 0 269 -116.5t115 -273.5q0 -160 -114.5 -272t-269.5 -112z" />
    <glyph glyph-name="ellipsis" unicode="&#x2026;" horiz-adv-x="1784" 
d="M289 -20q-67 0 -116.5 49t-49.5 117t49.5 117t116.5 49q68 0 117.5 -49.5t49.5 -116.5t-49.5 -116.5t-117.5 -49.5zM909 -20q-68 0 -117.5 49.5t-49.5 116.5t49.5 116.5t117.5 49.5q67 0 116.5 -49t49.5 -117t-49.5 -117t-116.5 -49zM1536 -20q-68 0 -117 49t-49 117
t49 117t117 49t117 -49t49 -117t-49 -117t-117 -49z" />
    <glyph glyph-name="perthousand" unicode="&#x2030;" horiz-adv-x="2350" 
d="M422 860q-127 0 -215.5 102t-88.5 246t88.5 246t215.5 102t216 -102t89 -246t-89 -246t-216 -102zM177 0l1042 1536h250l-1041 -1536h-251zM422 1044q49 0 86 48t37 116t-37 116t-86 48t-84.5 -48t-35.5 -116t35.5 -116t84.5 -48zM1224 -20q-127 0 -216 102t-89 246
t89 246t216 102q128 0 216 -101.5t88 -246.5t-88 -246.5t-216 -101.5zM1938 -20q-127 0 -217 102t-90 246t90 246t217 102t216 -102t89 -246t-89 -246t-216 -102zM1224 164q49 0 84.5 48t35.5 116t-35.5 116t-84.5 48t-85 -48t-36 -116t36 -116t85 -48zM1935 164q49 0 85 48
t36 116t-36 116t-85 48t-84.5 -48t-35.5 -116t35.5 -116t84.5 -48z" />
    <glyph glyph-name="guilsinglleft" unicode="&#x2039;" horiz-adv-x="768" 
d="M422 195l-312 376l312 376h198l-313 -376l313 -376h-198z" />
    <glyph glyph-name="guilsinglright" unicode="&#x203a;" horiz-adv-x="768" 
d="M151 195l310 376l-310 376h195l312 -376l-312 -376h-195z" />
    <glyph glyph-name="fraction" unicode="&#x2044;" horiz-adv-x="1164" 
d="M-49 0l1070 1536h190l-1070 -1536h-190z" />
    <glyph glyph-name="Euro" unicode="&#x20ac;" horiz-adv-x="1551" 
d="M438 517q70 -141 204 -225.5t298 -84.5q103 0 208.5 43t180.5 116v-276q-191 -110 -389 -110q-262 0 -466.5 149t-284.5 388h-166v159h133q-5 52 -5 92q0 37 5 84h-133v159h166q76 243 281.5 394t469.5 151q198 0 389 -110l-69 -222q-69 50 -153 77.5t-167 27.5
q-166 0 -301 -87t-204 -231h758l-49 -159h-757q-6 -56 -6 -84q0 -42 8 -92h702l-52 -159h-601z" />
    <glyph glyph-name="uni2113" unicode="&#x2113;" horiz-adv-x="1249" 
d="M694 -13q-97 0 -174.5 30t-126.5 83.5t-78 118.5t-39 142q0 17 -2 20q-21 -14 -65.5 -47.5t-67.5 -49.5l-64 128q35 28 100 76.5t94 72.5v565q0 147 33 257t90.5 173t128 93t153.5 30t147 -30.5t103 -83t58.5 -119t19.5 -143.5q0 -193 -128.5 -383.5t-376.5 -407.5v-64
q2 -131 74 -202.5t175 -71.5t190.5 64t141.5 156l105 -97q-173 -310 -491 -310zM497 722q161 161 250.5 304t89.5 274q0 218 -156 218q-26 0 -50.5 -10.5t-49.5 -37t-43 -66.5t-29.5 -104.5t-11.5 -144.5v-433z" />
    <glyph glyph-name="trademark" unicode="&#x2122;" horiz-adv-x="1687" 
d="M90 1423v113h504v-113h-190v-604h-130v604h-184zM1362 1536h136v-717h-128v515l-254 -377l-253 374v-512h-128v717h138l243 -361z" />
    <glyph glyph-name="estimated" unicode="&#x212e;" horiz-adv-x="1927" 
d="M960 -18q-177 0 -338.5 62t-278.5 166.5t-186.5 250t-69.5 304.5q0 161 69.5 307.5t186.5 252.5t278.5 168.5t338.5 62.5q179 0 341.5 -62.5t280 -168.5t187 -252.5t69.5 -307.5v-20h-1418q-13 0 -13 -8v-430q0 -21 21 -48q105 -108 244 -170.5t291 -62.5q167 0 313 69.5
t252 191.5h126q-119 -141 -302 -223t-392 -82zM420 788h1088q8 0 8 16v430q0 33 -21 51q-107 104 -243.5 164.5t-288.5 60.5q-151 0 -288.5 -62t-246.5 -171q-21 -27 -21 -53v-420q0 -16 13 -16z" />
    <glyph glyph-name="partialdiff" unicode="&#x2202;" horiz-adv-x="1162" 
d="M356 1452q144 27 274.5 -20.5t223.5 -152.5t147.5 -263.5t53.5 -344.5q-1 -138 -41.5 -261t-109.5 -211t-165 -139.5t-204 -51.5q-127 0 -221.5 47t-142.5 130t-53.5 195.5t46.5 244.5q85 230 263.5 325t371.5 25q-57 188 -177.5 274t-265.5 31v172zM840 671q0 82 -5 120
q-148 91 -274.5 32.5t-199.5 -252.5q-38 -112 -30 -202.5t63.5 -147.5t140.5 -57q79 0 149 68.5t112.5 186t43.5 252.5z" />
    <glyph glyph-name="emptyset" unicode="&#x2205;" horiz-adv-x="1689" 
d="M1311 993q69 -80 107.5 -183t38.5 -214q0 -166 -82 -307t-223 -222.5t-307 -81.5q-226 0 -397 146l-90 -90l-69 69l90 90q-146 171 -146 396q0 166 82 307t223 223t307 82q111 0 214 -38.5t183 -107.5l89 87l67 -66zM425 596q0 -145 90 -261l591 589q-112 92 -261 92
q-175 0 -297.5 -122.5t-122.5 -297.5zM845 177q175 0 297.5 122t122.5 297q0 149 -93 262l-588 -592q114 -89 261 -89z" />
    <glyph glyph-name="product" unicode="&#x220f;" horiz-adv-x="1571" 
d="M1462 1439v-169h-146v-1516h-169v1516h-722v-1516h-172v1516h-143v169h1352z" />
    <glyph glyph-name="summation" unicode="&#x2211;" horiz-adv-x="1571" 
d="M192 -241v141l722 699l-722 696v144h1188v-182h-881l668 -658l-668 -658h881v-184z" />
    <glyph glyph-name="minus" unicode="&#x2212;" horiz-adv-x="1346" 
d="M131 522v190h1085v-190h-1085z" />
    <glyph glyph-name="radical" unicode="&#x221a;" horiz-adv-x="1543" 
d="M520 -159l-228 704h-141v156h253l200 -609l704 1477l144 -61l-797 -1667h-135z" />
    <glyph glyph-name="infinity" unicode="&#x221e;" horiz-adv-x="1615" 
d="M433 279q-129 0 -213.5 89.5t-88.5 227.5q4 138 88.5 228t213.5 90q183 0 376 -202q92 98 188.5 150t185.5 52q134 0 216 -86t86 -232q-4 -146 -85.5 -231.5t-216.5 -85.5q-88 0 -184.5 52t-189.5 148q-94 -96 -191 -148t-185 -52zM433 435q122 0 271 161
q-154 162 -271 162q-60 0 -103 -47t-43 -115t43 -114.5t103 -46.5zM1183 435q62 0 103 44.5t43 116.5q-2 71 -43 116.5t-103 45.5q-118 0 -272 -162q153 -161 272 -161z" />
    <glyph glyph-name="integral" unicode="&#x222b;" horiz-adv-x="988" 
d="M238 -387q-95 0 -138 71t-5 173h135q-10 -58 -3.5 -79t34.5 -21q20 0 33.5 12.5t15.5 35.5l240 1521q13 82 77.5 137t143.5 55q92 0 135 -70.5t5 -172.5h-135q9 55 3.5 77.5t-34.5 22.5q-38 0 -51 -49l-241 -1521q-13 -84 -74.5 -138t-140.5 -54z" />
    <glyph glyph-name="approxequal" unicode="&#x2248;" horiz-adv-x="1251" 
d="M840 648q-43 0 -84 12.5t-65 24.5t-58 42t-41 37.5t-36 39.5q-37 37 -65 53t-61 16q-70 -2 -109 -59t-39 -148h-169q-2 170 84.5 273t235.5 103q82 0 141.5 -35.5t119.5 -113.5q23 -27 36 -39.5t40 -27t57 -14.5q64 0 103.5 55.5t39.5 148.5h169q0 -161 -81 -264.5
t-218 -103.5zM840 215q-43 0 -84 12.5t-65 24.5t-58 42t-41 37.5t-36 39.5q-36 38 -62.5 54.5t-63.5 14.5q-70 -2 -109 -58.5t-39 -145.5h-169q-2 169 85.5 272.5t234.5 103.5q80 0 139.5 -35.5t121.5 -113.5q25 -29 36.5 -41t39 -27.5t57.5 -15.5q64 0 103.5 55t39.5 152
h169q0 -163 -81 -267t-218 -104z" />
    <glyph glyph-name="notequal" unicode="&#x2260;" horiz-adv-x="1487" 
d="M1359 663h-427l-205 -241h632v-156h-765l-218 -253h-140l217 253h-322v156h455l205 241h-660v156h793l187 218h141l-187 -218h294v-156z" />
    <glyph glyph-name="lessequal" unicode="&#x2264;" horiz-adv-x="1635" 
d="M1382 1462v-200l-929 -417l929 -420v-202l-1129 512v217zM253 0v141h1129v-141h-1129z" />
    <glyph glyph-name="greaterequal" unicode="&#x2265;" horiz-adv-x="1635" 
d="M253 1462l1129 -510v-217l-1129 -512v202l930 420l-930 417v200zM253 0v141h1129v-141h-1129z" />
    <glyph glyph-name="lozenge" unicode="&#x25ca;" horiz-adv-x="1620" 
d="M809 108l-617 614l617 619l617 -617zM812 374l348 350l-348 351l-351 -353z" />
    <glyph glyph-name="uniF8FF" unicode="&#xf8ff;" horiz-adv-x="1937" 
d="M970 0q-158 0 -302.5 62t-248.5 166t-165.5 248t-61.5 302t61.5 302.5t165.5 248.5t248.5 165.5t302.5 61.5t302.5 -61.5t248.5 -165.5t165.5 -248.5t61.5 -302.5t-61.5 -302t-165.5 -248t-248.5 -166t-302.5 -62zM970 74q143 0 273.5 56t225 150.5t150 224.5t55.5 273
t-55.5 273.5t-150 225t-225 150t-273.5 55.5t-274 -55.5t-225.5 -150t-150.5 -225t-56 -273.5t56 -273t150.5 -224.5t225.5 -150.5t274 -56zM1377 445q-14 0 -25 11l-297 297q-10 11 -10 26t10 25l297 297q11 11 26 11t25 -11q11 -10 11 -25.5t-11 -25.5l-269 -272l269 -271
q23 -20 0 -51q-7 -11 -26 -11zM561 445q-15 0 -25.5 10.5t-10.5 25.5v594q0 15 10.5 25.5t25.5 10.5t26.5 -10.5t11.5 -25.5v-594q0 -15 -11.5 -25.5t-26.5 -10.5zM970 445q-15 0 -26.5 10.5t-11.5 25.5v594q0 15 11.5 25.5t26.5 10.5t25.5 -10.5t10.5 -25.5v-594
q0 -15 -10.5 -25.5t-25.5 -10.5zM673 742q-15 0 -26.5 10.5t-11.5 25.5t11.5 25.5t26.5 10.5h185q15 0 26.5 -10.5t11.5 -25.5t-11.5 -25.5t-26.5 -10.5h-185z" />
    <glyph glyph-name="i.loclTRK" horiz-adv-x="606" 
d="M305 1165q-58 0 -101 42.5t-43 100.5q0 61 43 103.5t101 42.5q60 0 103 -42.5t43 -103.5q0 -58 -43.5 -100.5t-102.5 -42.5zM182 0v1024h243v-1024h-243z" />
    </font>
</defs>
</svg>
